<svg xmlns="http://www.w3.org/2000/svg" width="1600" height="1200" viewBox="0 0 1600 1200">
<rect width="1600" height="1200" fill="white"/>
<line x1="110.0" y1="90" x2="110.0" y2="1090" stroke="#e6ebf2" stroke-width="1"/>
<line x1="110.0" y1="1090" x2="110.0" y2="1096" stroke="#bcc6d3" stroke-width="1"/>
<text x="110.0" y="1116" text-anchor="middle" font-size="13" font-family="Georgia" fill="#4b5563">0</text>
<line x1="227.5" y1="90" x2="227.5" y2="1090" stroke="#e6ebf2" stroke-width="1"/>
<line x1="227.5" y1="1090" x2="227.5" y2="1096" stroke="#bcc6d3" stroke-width="1"/>
<text x="227.5" y="1116" text-anchor="middle" font-size="13" font-family="Georgia" fill="#4b5563">1</text>
<line x1="345.0" y1="90" x2="345.0" y2="1090" stroke="#e6ebf2" stroke-width="1"/>
<line x1="345.0" y1="1090" x2="345.0" y2="1096" stroke="#bcc6d3" stroke-width="1"/>
<text x="345.0" y="1116" text-anchor="middle" font-size="13" font-family="Georgia" fill="#4b5563">2</text>
<line x1="462.5" y1="90" x2="462.5" y2="1090" stroke="#e6ebf2" stroke-width="1"/>
<line x1="462.5" y1="1090" x2="462.5" y2="1096" stroke="#bcc6d3" stroke-width="1"/>
<text x="462.5" y="1116" text-anchor="middle" font-size="13" font-family="Georgia" fill="#4b5563">3</text>
<line x1="580.0" y1="90" x2="580.0" y2="1090" stroke="#e6ebf2" stroke-width="1"/>
<line x1="580.0" y1="1090" x2="580.0" y2="1096" stroke="#bcc6d3" stroke-width="1"/>
<text x="580.0" y="1116" text-anchor="middle" font-size="13" font-family="Georgia" fill="#4b5563">4</text>
<line x1="697.5" y1="90" x2="697.5" y2="1090" stroke="#e6ebf2" stroke-width="1"/>
<line x1="697.5" y1="1090" x2="697.5" y2="1096" stroke="#bcc6d3" stroke-width="1"/>
<text x="697.5" y="1116" text-anchor="middle" font-size="13" font-family="Georgia" fill="#4b5563">5</text>
<line x1="815.0" y1="90" x2="815.0" y2="1090" stroke="#e6ebf2" stroke-width="1"/>
<line x1="815.0" y1="1090" x2="815.0" y2="1096" stroke="#bcc6d3" stroke-width="1"/>
<text x="815.0" y="1116" text-anchor="middle" font-size="13" font-family="Georgia" fill="#4b5563">6</text>
<line x1="932.5" y1="90" x2="932.5" y2="1090" stroke="#e6ebf2" stroke-width="1"/>
<line x1="932.5" y1="1090" x2="932.5" y2="1096" stroke="#bcc6d3" stroke-width="1"/>
<text x="932.5" y="1116" text-anchor="middle" font-size="13" font-family="Georgia" fill="#4b5563">7</text>
<line x1="1050.0" y1="90" x2="1050.0" y2="1090" stroke="#e6ebf2" stroke-width="1"/>
<line x1="1050.0" y1="1090" x2="1050.0" y2="1096" stroke="#bcc6d3" stroke-width="1"/>
<text x="1050.0" y="1116" text-anchor="middle" font-size="13" font-family="Georgia" fill="#4b5563">8</text>
<line x1="1167.5" y1="90" x2="1167.5" y2="1090" stroke="#e6ebf2" stroke-width="1"/>
<line x1="1167.5" y1="1090" x2="1167.5" y2="1096" stroke="#bcc6d3" stroke-width="1"/>
<text x="1167.5" y="1116" text-anchor="middle" font-size="13" font-family="Georgia" fill="#4b5563">9</text>
<line x1="1285.0" y1="90" x2="1285.0" y2="1090" stroke="#e6ebf2" stroke-width="1"/>
<line x1="1285.0" y1="1090" x2="1285.0" y2="1096" stroke="#bcc6d3" stroke-width="1"/>
<text x="1285.0" y="1116" text-anchor="middle" font-size="13" font-family="Georgia" fill="#4b5563">10</text>
<line x1="1402.5" y1="90" x2="1402.5" y2="1090" stroke="#e6ebf2" stroke-width="1"/>
<line x1="1402.5" y1="1090" x2="1402.5" y2="1096" stroke="#bcc6d3" stroke-width="1"/>
<text x="1402.5" y="1116" text-anchor="middle" font-size="13" font-family="Georgia" fill="#4b5563">11</text>
<line x1="1520.0" y1="90" x2="1520.0" y2="1090" stroke="#e6ebf2" stroke-width="1"/>
<line x1="1520.0" y1="1090" x2="1520.0" y2="1096" stroke="#bcc6d3" stroke-width="1"/>
<text x="1520.0" y="1116" text-anchor="middle" font-size="13" font-family="Georgia" fill="#4b5563">12</text>
<line x1="110" y1="1090.0" x2="1520" y2="1090.0" stroke="#e6ebf2" stroke-width="1"/>
<line x1="104" y1="1090.0" x2="110" y2="1090.0" stroke="#bcc6d3" stroke-width="1"/>
<text x="98" y="1094.0" text-anchor="end" font-size="13" font-family="Georgia" fill="#4b5563">0</text>
<line x1="110" y1="971.0" x2="1520" y2="971.0" stroke="#e6ebf2" stroke-width="1"/>
<line x1="104" y1="971.0" x2="110" y2="971.0" stroke="#bcc6d3" stroke-width="1"/>
<text x="98" y="975.0" text-anchor="end" font-size="13" font-family="Georgia" fill="#4b5563">500</text>
<line x1="110" y1="851.9" x2="1520" y2="851.9" stroke="#e6ebf2" stroke-width="1"/>
<line x1="104" y1="851.9" x2="110" y2="851.9" stroke="#bcc6d3" stroke-width="1"/>
<text x="98" y="855.9" text-anchor="end" font-size="13" font-family="Georgia" fill="#4b5563">1000</text>
<line x1="110" y1="732.9" x2="1520" y2="732.9" stroke="#e6ebf2" stroke-width="1"/>
<line x1="104" y1="732.9" x2="110" y2="732.9" stroke="#bcc6d3" stroke-width="1"/>
<text x="98" y="736.9" text-anchor="end" font-size="13" font-family="Georgia" fill="#4b5563">1500</text>
<line x1="110" y1="613.8" x2="1520" y2="613.8" stroke="#e6ebf2" stroke-width="1"/>
<line x1="104" y1="613.8" x2="110" y2="613.8" stroke="#bcc6d3" stroke-width="1"/>
<text x="98" y="617.8" text-anchor="end" font-size="13" font-family="Georgia" fill="#4b5563">2000</text>
<line x1="110" y1="494.8" x2="1520" y2="494.8" stroke="#e6ebf2" stroke-width="1"/>
<line x1="104" y1="494.8" x2="110" y2="494.8" stroke="#bcc6d3" stroke-width="1"/>
<text x="98" y="498.8" text-anchor="end" font-size="13" font-family="Georgia" fill="#4b5563">2500</text>
<line x1="110" y1="375.7" x2="1520" y2="375.7" stroke="#e6ebf2" stroke-width="1"/>
<line x1="104" y1="375.7" x2="110" y2="375.7" stroke="#bcc6d3" stroke-width="1"/>
<text x="98" y="379.7" text-anchor="end" font-size="13" font-family="Georgia" fill="#4b5563">3000</text>
<line x1="110" y1="256.7" x2="1520" y2="256.7" stroke="#e6ebf2" stroke-width="1"/>
<line x1="104" y1="256.7" x2="110" y2="256.7" stroke="#bcc6d3" stroke-width="1"/>
<text x="98" y="260.7" text-anchor="end" font-size="13" font-family="Georgia" fill="#4b5563">3500</text>
<line x1="110" y1="137.6" x2="1520" y2="137.6" stroke="#e6ebf2" stroke-width="1"/>
<line x1="104" y1="137.6" x2="110" y2="137.6" stroke="#bcc6d3" stroke-width="1"/>
<text x="98" y="141.6" text-anchor="end" font-size="13" font-family="Georgia" fill="#4b5563">4000</text>
<rect x="110" y="90" width="1410" height="1000" fill="none" stroke="#bcc6d3" stroke-width="1"/>
<text x="815" y="1176" text-anchor="middle" font-size="16" font-family="Georgia" fill="#4b5563">Entropy (kJ/(kg·K))</text>
<text x="34" y="590" text-anchor="middle" font-size="16" font-family="Georgia" fill="#4b5563" transform="rotate(-90,34,590)">Enthalpy (kJ/kg)</text>
<text x="800" y="42" text-anchor="middle" font-size="28" font-family="Georgia" font-weight="bold" fill="#1f2937">Mollier h-s Diagram</text>
<text x="800" y="66" text-anchor="middle" font-size="15" font-family="Georgia" fill="#6b7280">IAPWS-IF97 by jltonghui</text>
<path d="M 217.6 1030.5 L 220.9 1028.1 L 224.1 1025.7 L 227.3 1023.4 L 230.5 1021.0 L 233.7 1018.7 L 236.9 1016.3 L 240.0 1014.0 L 243.1 1011.7 L 246.2 1009.3 L 249.3 1007.0 L 252.4 1004.6 L 255.4 1002.3 L 258.4 999.9 L 261.4 997.6 L 264.4 995.3 L 267.4 992.9 L 270.4 990.6 L 273.3 988.3 L 276.2 985.9 L 279.1 983.6 L 282.0 981.2 L 284.9 978.9 L 287.8 976.6 L 290.6 974.2 L 293.5 971.9 L 296.3 969.6 L 299.1 967.2 L 301.9 964.9 L 304.6 962.5 L 307.4 960.2 L 310.2 957.9 L 312.9 955.5 L 315.6 953.2 L 318.3 950.8 L 321.0 948.5 L 323.7 946.2 L 326.4 943.8 L 329.0 941.5 L 331.7 939.1 L 334.3 936.8 L 336.9 934.4 L 339.5 932.1 L 342.1 929.7 L 344.7 927.4 L 347.3 925.0 L 349.9 922.7 L 352.4 920.3 L 355.0 918.0 L 357.5 915.6 L 360.0 913.2 L 362.5 910.9 L 365.0 908.5 L 367.5 906.2 L 370.0 903.8 L 372.5 901.4 L 374.9 899.1 L 377.4 896.7 L 379.8 894.3 L 382.3 891.9 L 384.7 889.6 L 387.1 887.2 L 389.5 884.8 L 391.9 882.4 L 394.3 880.0 L 396.7 877.7 L 399.0 875.3 L 401.4 872.9 L 403.8 870.5 L 406.1 868.1 L 408.4 865.7 L 410.8 863.3 L 413.1 860.9 L 415.4 858.5 L 417.7 856.0 L 420.0 853.6 L 422.3 851.2 L 424.6 848.8 L 426.9 846.3 L 429.2 843.9 L 431.5 841.5 L 433.8 839.0 L 436.0 836.6 L 438.3 834.1 L 440.5 831.7 L 442.8 829.2 L 445.0 826.7 L 447.3 824.3 L 449.5 821.8 L 451.7 819.3 L 454.0 816.8 L 456.2 814.3 L 458.4 811.8 L 460.6 809.3 L 462.8 806.7 L 465.0 804.2 L 467.3 801.7 L 469.5 799.1 L 471.7 796.6 L 473.9 794.0 L 476.1 791.5 L 478.3 788.9 L 480.5 786.3 L 482.7 783.7 L 484.9 781.1 L 487.1 778.5 L 489.3 775.8 L 491.5 773.2 L 493.7 770.5 L 495.9 767.8 L 498.1 765.2 L 500.3 762.5 L 502.5 759.8 L 504.7 757.0 L 507.0 754.3 L 509.2 751.5 L 511.4 748.7 L 513.6 745.9 L 515.9 743.1 L 518.1 740.3 L 520.4 737.4 L 522.7 734.5 L 524.9 731.6 L 527.2 728.7 L 529.5 725.8 L 531.8 722.8 L 534.2 719.8 L 536.5 716.7 L 538.9 713.6 L 541.3 710.5 L 543.7 707.4 L 546.1 704.2 L 548.5 700.9 L 551.0 697.6 L 553.5 694.3 L 556.1 690.9 L 558.6 687.4 L 561.3 683.8 L 564.0 680.2 L 566.7 676.5 L 569.5 672.6 L 572.5 668.6 L 575.5 664.5 L 578.6 660.2 L 582.0 655.6 L 585.5 650.7 L 589.4 645.4 L 593.7 639.5 L 598.7 632.6 L 605.4 623.6 L 622.0 601.4" fill="none" stroke="#98a2b3" stroke-width="0.9" stroke-dasharray="5,7"/>
<path d="M 432.7 911.4 L 433.6 909.3 L 434.4 907.2 L 435.3 905.1 L 436.1 903.1 L 437.0 901.0 L 438.0 898.9 L 438.9 896.9 L 439.8 894.8 L 440.8 892.7 L 441.8 890.7 L 442.8 888.6 L 443.8 886.6 L 444.9 884.5 L 445.9 882.5 L 447.0 880.4 L 448.0 878.3 L 449.1 876.3 L 450.2 874.2 L 451.3 872.2 L 452.5 870.1 L 453.6 868.1 L 454.7 866.0 L 455.9 864.0 L 457.0 861.9 L 458.2 859.9 L 459.4 857.8 L 460.6 855.8 L 461.8 853.8 L 463.0 851.7 L 464.2 849.7 L 465.4 847.6 L 466.6 845.6 L 467.8 843.5 L 469.1 841.5 L 470.3 839.5 L 471.6 837.4 L 472.8 835.4 L 474.1 833.4 L 475.3 831.3 L 476.6 829.3 L 477.8 827.2 L 479.1 825.2 L 480.4 823.2 L 481.7 821.2 L 482.9 819.1 L 484.2 817.1 L 485.5 815.1 L 486.8 813.0 L 488.1 811.0 L 489.3 809.0 L 490.6 807.0 L 491.9 805.0 L 493.2 802.9 L 494.5 800.9 L 495.8 798.9 L 497.1 796.9 L 498.4 794.9 L 499.7 792.9 L 501.0 790.9 L 502.3 788.9 L 503.6 786.8 L 504.9 784.8 L 506.2 782.8 L 507.4 780.8 L 508.7 778.8 L 510.0 776.8 L 511.3 774.8 L 512.6 772.8 L 513.9 770.8 L 515.2 768.9 L 516.5 766.9 L 517.8 764.9 L 519.1 762.9 L 520.4 760.9 L 521.6 758.9 L 522.9 756.9 L 524.2 754.9 L 525.5 752.9 L 526.8 751.0 L 528.1 749.0 L 529.3 747.0 L 530.6 745.0 L 531.9 743.1 L 533.2 741.1 L 534.5 739.1 L 535.7 737.1 L 537.0 735.2 L 538.3 733.2 L 539.5 731.2 L 540.8 729.2 L 542.1 727.3 L 543.3 725.3 L 544.6 723.3 L 545.9 721.4 L 547.1 719.4 L 548.4 717.4 L 549.6 715.5 L 550.9 713.5 L 552.2 711.5 L 553.4 709.6 L 554.7 707.6 L 555.9 705.7 L 557.2 703.7 L 558.4 701.7 L 559.7 699.8 L 560.9 697.8 L 562.2 695.8 L 563.4 693.9 L 564.7 691.9 L 565.9 689.9 L 567.2 688.0 L 568.4 686.0 L 569.7 684.0 L 570.9 682.1 L 572.1 680.1 L 573.4 678.1 L 574.6 676.1 L 575.9 674.2 L 577.1 672.2 L 578.4 670.2 L 579.6 668.2 L 580.9 666.2 L 582.1 664.2 L 583.4 662.2 L 584.6 660.2 L 585.9 658.2 L 587.1 656.2 L 588.4 654.2 L 589.6 652.2 L 590.9 650.2 L 592.2 648.1 L 593.4 646.1 L 594.7 644.0 L 596.0 642.0 L 597.3 639.9 L 598.6 637.8 L 599.9 635.8 L 601.2 633.6 L 602.5 631.5 L 603.9 629.4 L 605.2 627.2 L 606.6 624.9 L 608.1 622.6 L 609.6 620.3 L 611.1 617.8 L 612.7 615.3 L 614.5 612.5 L 616.5 609.5 L 619.1 605.7 L 625.4 596.9" fill="none" stroke="#98a2b3" stroke-width="0.9" stroke-dasharray="5,7"/>
<path d="M 647.9 792.3 L 646.3 790.5 L 644.7 788.7 L 643.2 786.9 L 641.8 785.1 L 640.4 783.3 L 639.1 781.5 L 637.8 779.7 L 636.6 778.0 L 635.4 776.2 L 634.3 774.4 L 633.3 772.6 L 632.3 770.9 L 631.3 769.1 L 630.4 767.3 L 629.5 765.5 L 628.7 763.8 L 627.9 762.0 L 627.2 760.2 L 626.5 758.5 L 625.8 756.7 L 625.2 754.9 L 624.6 753.2 L 624.0 751.4 L 623.5 749.6 L 623.0 747.9 L 622.5 746.1 L 622.1 744.4 L 621.7 742.6 L 621.3 740.9 L 621.0 739.1 L 620.6 737.4 L 620.4 735.6 L 620.1 733.9 L 619.8 732.2 L 619.6 730.4 L 619.4 728.7 L 619.3 727.0 L 619.1 725.2 L 619.0 723.5 L 618.9 721.8 L 618.8 720.1 L 618.7 718.4 L 618.6 716.6 L 618.6 714.9 L 618.6 713.2 L 618.6 711.5 L 618.6 709.8 L 618.6 708.1 L 618.6 706.4 L 618.7 704.8 L 618.7 703.1 L 618.8 701.4 L 618.9 699.7 L 619.0 698.1 L 619.1 696.4 L 619.3 694.7 L 619.4 693.1 L 619.5 691.4 L 619.7 689.8 L 619.9 688.1 L 620.0 686.5 L 620.2 684.9 L 620.4 683.2 L 620.6 681.6 L 620.8 680.0 L 621.0 678.4 L 621.3 676.8 L 621.5 675.2 L 621.7 673.6 L 622.0 672.0 L 622.2 670.4 L 622.5 668.9 L 622.7 667.3 L 623.0 665.7 L 623.2 664.2 L 623.5 662.6 L 623.8 661.1 L 624.1 659.6 L 624.4 658.0 L 624.6 656.5 L 624.9 655.0 L 625.2 653.5 L 625.5 652.0 L 625.8 650.5 L 626.1 649.0 L 626.4 647.5 L 626.7 646.1 L 627.0 644.6 L 627.3 643.1 L 627.7 641.7 L 628.0 640.3 L 628.3 638.8 L 628.6 637.4 L 628.9 636.0 L 629.2 634.6 L 629.5 633.2 L 629.8 631.8 L 630.1 630.4 L 630.5 629.1 L 630.8 627.7 L 631.1 626.4 L 631.4 625.0 L 631.7 623.7 L 632.0 622.4 L 632.3 621.1 L 632.6 619.8 L 632.9 618.5 L 633.2 617.2 L 633.5 616.0 L 633.7 614.7 L 634.0 613.5 L 634.3 612.3 L 634.6 611.1 L 634.8 609.9 L 635.1 608.7 L 635.4 607.5 L 635.6 606.4 L 635.9 605.2 L 636.1 604.1 L 636.3 603.0 L 636.6 601.9 L 636.8 600.8 L 637.0 599.8 L 637.2 598.7 L 637.4 597.7 L 637.6 596.7 L 637.7 595.8 L 637.9 594.8 L 638.0 593.9 L 638.2 593.0 L 638.3 592.1 L 638.4 591.3 L 638.4 590.5 L 638.5 589.7 L 638.5 589.0 L 638.5 588.3 L 638.5 587.7 L 638.4 587.1 L 638.3 586.6 L 638.2 586.1 L 638.0 585.7 L 637.8 585.3 L 637.5 585.1 L 637.1 585.0 L 636.7 585.0 L 636.1 585.1 L 635.3 585.5 L 634.3 586.3 L 632.8 587.8 L 628.9 592.3" fill="none" stroke="#98a2b3" stroke-width="0.9" stroke-dasharray="5,7"/>
<path d="M 755.5 732.7 L 752.6 731.1 L 749.8 729.4 L 747.2 727.8 L 744.6 726.1 L 742.0 724.5 L 739.6 722.8 L 737.2 721.2 L 734.9 719.5 L 732.7 717.9 L 730.6 716.3 L 728.5 714.6 L 726.5 713.0 L 724.5 711.4 L 722.6 709.7 L 720.8 708.1 L 719.0 706.5 L 717.3 704.8 L 715.6 703.2 L 714.0 701.6 L 712.4 700.0 L 710.9 698.4 L 709.5 696.7 L 708.1 695.1 L 706.7 693.5 L 705.4 691.9 L 704.1 690.3 L 702.8 688.7 L 701.6 687.1 L 700.5 685.5 L 699.4 683.9 L 698.3 682.3 L 697.2 680.7 L 696.2 679.1 L 695.2 677.5 L 694.3 675.9 L 693.4 674.3 L 692.5 672.8 L 691.6 671.2 L 690.8 669.6 L 690.0 668.0 L 689.2 666.5 L 688.5 664.9 L 687.7 663.4 L 687.1 661.8 L 686.4 660.3 L 685.7 658.7 L 685.1 657.2 L 684.5 655.7 L 683.9 654.2 L 683.3 652.6 L 682.8 651.1 L 682.3 649.6 L 681.8 648.1 L 681.3 646.6 L 680.8 645.1 L 680.3 643.6 L 679.9 642.2 L 679.5 640.7 L 679.1 639.2 L 678.7 637.8 L 678.3 636.3 L 677.9 634.9 L 677.5 633.4 L 677.2 632.0 L 676.9 630.6 L 676.5 629.2 L 676.2 627.8 L 675.9 626.4 L 675.6 625.0 L 675.3 623.6 L 675.1 622.2 L 674.8 620.9 L 674.5 619.5 L 674.3 618.2 L 674.0 616.8 L 673.8 615.5 L 673.6 614.2 L 673.4 612.9 L 673.1 611.6 L 672.9 610.3 L 672.7 609.0 L 672.5 607.7 L 672.3 606.5 L 672.1 605.2 L 672.0 604.0 L 671.8 602.7 L 671.6 601.5 L 671.4 600.3 L 671.3 599.1 L 671.1 597.9 L 670.9 596.8 L 670.7 595.6 L 670.6 594.4 L 670.4 593.3 L 670.3 592.2 L 670.1 591.1 L 669.9 590.0 L 669.8 588.9 L 669.6 587.8 L 669.4 586.8 L 669.3 585.7 L 669.1 584.7 L 668.9 583.7 L 668.8 582.7 L 668.6 581.7 L 668.4 580.8 L 668.2 579.8 L 668.0 578.9 L 667.8 578.0 L 667.7 577.1 L 667.5 576.2 L 667.2 575.4 L 667.0 574.6 L 666.8 573.8 L 666.6 573.0 L 666.4 572.2 L 666.1 571.5 L 665.9 570.7 L 665.6 570.0 L 665.3 569.4 L 665.0 568.7 L 664.8 568.1 L 664.4 567.5 L 664.1 567.0 L 663.8 566.5 L 663.4 566.0 L 663.0 565.5 L 662.7 565.1 L 662.2 564.7 L 661.8 564.4 L 661.3 564.1 L 660.8 563.9 L 660.3 563.7 L 659.7 563.6 L 659.1 563.5 L 658.5 563.5 L 657.8 563.6 L 657.0 563.8 L 656.2 564.1 L 655.3 564.4 L 654.4 564.9 L 653.4 565.5 L 652.2 566.3 L 650.9 567.3 L 649.4 568.5 L 647.8 570.1 L 645.7 572.1 L 643.2 574.8 L 639.6 578.9 L 630.6 590.1" fill="none" stroke="#98a2b3" stroke-width="0.9" stroke-dasharray="5,7"/>
<path d="M 863.0 673.2 L 859.0 671.7 L 855.0 670.2 L 851.1 668.6 L 847.4 667.1 L 843.7 665.6 L 840.1 664.1 L 836.7 662.6 L 833.3 661.1 L 830.0 659.6 L 826.8 658.1 L 823.7 656.6 L 820.7 655.1 L 817.7 653.6 L 814.9 652.2 L 812.1 650.7 L 809.3 649.2 L 806.7 647.7 L 804.1 646.2 L 801.6 644.7 L 799.1 643.2 L 796.7 641.8 L 794.4 640.3 L 792.1 638.8 L 789.9 637.4 L 787.7 635.9 L 785.6 634.4 L 783.6 633.0 L 781.6 631.5 L 779.6 630.1 L 777.7 628.6 L 775.9 627.2 L 774.1 625.7 L 772.3 624.3 L 770.6 622.8 L 768.9 621.4 L 767.3 620.0 L 765.7 618.5 L 764.1 617.1 L 762.6 615.7 L 761.1 614.3 L 759.7 612.9 L 758.3 611.5 L 756.9 610.1 L 755.5 608.7 L 754.2 607.3 L 752.9 606.0 L 751.6 604.6 L 750.4 603.2 L 749.2 601.9 L 748.0 600.5 L 746.9 599.2 L 745.7 597.8 L 744.6 596.5 L 743.5 595.2 L 742.5 593.9 L 741.4 592.6 L 740.4 591.3 L 739.4 590.0 L 738.4 588.7 L 737.4 587.4 L 736.5 586.2 L 735.6 584.9 L 734.7 583.7 L 733.8 582.4 L 732.9 581.2 L 732.0 580.0 L 731.2 578.8 L 730.3 577.6 L 729.5 576.4 L 728.7 575.2 L 727.9 574.0 L 727.1 572.9 L 726.4 571.7 L 725.6 570.6 L 724.8 569.5 L 724.1 568.4 L 723.4 567.3 L 722.6 566.2 L 721.9 565.1 L 721.2 564.0 L 720.5 563.0 L 719.8 561.9 L 719.1 560.9 L 718.5 559.9 L 717.8 558.9 L 717.1 557.9 L 716.5 557.0 L 715.8 556.0 L 715.2 555.1 L 714.5 554.1 L 713.9 553.2 L 713.2 552.4 L 712.6 551.5 L 711.9 550.6 L 711.3 549.8 L 710.7 549.0 L 710.0 548.1 L 709.4 547.4 L 708.7 546.6 L 708.1 545.8 L 707.5 545.1 L 706.8 544.4 L 706.2 543.7 L 705.5 543.0 L 704.9 542.4 L 704.2 541.8 L 703.6 541.2 L 702.9 540.6 L 702.2 540.0 L 701.6 539.5 L 700.9 539.0 L 700.2 538.5 L 699.5 538.1 L 698.8 537.6 L 698.1 537.3 L 697.4 536.9 L 696.6 536.6 L 695.9 536.3 L 695.1 536.0 L 694.3 535.8 L 693.5 535.6 L 692.7 535.4 L 691.9 535.3 L 691.0 535.2 L 690.2 535.2 L 689.3 535.2 L 688.4 535.3 L 687.4 535.4 L 686.4 535.6 L 685.4 535.8 L 684.4 536.1 L 683.3 536.5 L 682.2 536.9 L 681.0 537.4 L 679.7 538.1 L 678.5 538.8 L 677.1 539.6 L 675.7 540.5 L 674.1 541.6 L 672.5 542.8 L 670.8 544.2 L 668.9 545.8 L 666.9 547.6 L 664.7 549.6 L 662.2 552.1 L 659.4 555.0 L 656.1 558.6 L 652.1 563.2 L 646.4 569.9 L 632.4 587.8" fill="none" stroke="#98a2b3" stroke-width="0.9" stroke-dasharray="5,7"/>
<path d="M 970.6 613.6 L 965.3 612.3 L 960.1 610.9 L 955.1 609.5 L 950.2 608.2 L 945.4 606.8 L 940.7 605.4 L 936.1 604.1 L 931.7 602.7 L 927.3 601.3 L 923.1 600.0 L 918.9 598.6 L 914.9 597.3 L 910.9 595.9 L 907.1 594.6 L 903.3 593.2 L 899.7 591.9 L 896.1 590.5 L 892.6 589.2 L 889.1 587.9 L 885.8 586.5 L 882.5 585.2 L 879.3 583.9 L 876.2 582.5 L 873.1 581.2 L 870.1 579.9 L 867.2 578.6 L 864.3 577.3 L 861.5 575.9 L 858.8 574.6 L 856.1 573.3 L 853.5 572.0 L 850.9 570.7 L 848.4 569.5 L 846.0 568.2 L 843.6 566.9 L 841.2 565.6 L 838.9 564.3 L 836.6 563.1 L 834.4 561.8 L 832.3 560.6 L 830.1 559.3 L 828.0 558.1 L 826.0 556.8 L 824.0 555.6 L 822.0 554.4 L 820.1 553.2 L 818.2 552.0 L 816.3 550.8 L 814.5 549.6 L 812.7 548.4 L 810.9 547.2 L 809.2 546.1 L 807.5 544.9 L 805.8 543.7 L 804.1 542.6 L 802.5 541.5 L 800.9 540.4 L 799.3 539.2 L 797.8 538.1 L 796.2 537.1 L 794.7 536.0 L 793.3 534.9 L 791.8 533.9 L 790.4 532.8 L 788.9 531.8 L 787.5 530.8 L 786.1 529.7 L 784.8 528.7 L 783.4 527.8 L 782.1 526.8 L 780.8 525.8 L 779.5 524.9 L 778.2 523.9 L 776.9 523.0 L 775.6 522.1 L 774.4 521.2 L 773.2 520.3 L 771.9 519.5 L 770.7 518.6 L 769.5 517.8 L 768.3 517.0 L 767.1 516.2 L 766.0 515.4 L 764.8 514.6 L 763.6 513.9 L 762.5 513.1 L 761.3 512.4 L 760.2 511.7 L 759.1 511.0 L 757.9 510.4 L 756.8 509.7 L 755.7 509.1 L 754.6 508.5 L 753.4 507.9 L 752.3 507.4 L 751.2 506.8 L 750.1 506.3 L 749.0 505.8 L 747.9 505.4 L 746.8 504.9 L 745.7 504.5 L 744.5 504.1 L 743.4 503.7 L 742.3 503.4 L 741.2 503.1 L 740.1 502.8 L 738.9 502.5 L 737.8 502.3 L 736.6 502.1 L 735.5 501.9 L 734.3 501.8 L 733.1 501.6 L 732.0 501.6 L 730.8 501.5 L 729.6 501.5 L 728.3 501.6 L 727.1 501.7 L 725.9 501.8 L 724.6 501.9 L 723.3 502.1 L 722.0 502.4 L 720.7 502.7 L 719.3 503.1 L 718.0 503.5 L 716.6 503.9 L 715.1 504.4 L 713.7 505.0 L 712.2 505.7 L 710.6 506.4 L 709.1 507.2 L 707.4 508.1 L 705.8 509.1 L 704.0 510.1 L 702.2 511.3 L 700.4 512.6 L 698.4 514.0 L 696.4 515.5 L 694.3 517.3 L 692.0 519.1 L 689.7 521.2 L 687.2 523.4 L 684.5 526.0 L 681.6 528.8 L 678.5 532.0 L 675.0 535.6 L 671.1 539.9 L 666.6 545.1 L 661.0 551.6 L 653.3 561.0 L 634.1 585.5" fill="none" stroke="#98a2b3" stroke-width="0.9" stroke-dasharray="5,7"/>
<path d="M 1078.2 554.1 L 1071.7 552.9 L 1065.3 551.6 L 1059.1 550.4 L 1053.0 549.2 L 1047.0 547.9 L 1041.2 546.7 L 1035.6 545.5 L 1030.0 544.3 L 1024.6 543.1 L 1019.3 541.8 L 1014.2 540.6 L 1009.1 539.4 L 1004.2 538.2 L 999.3 537.0 L 994.6 535.8 L 990.0 534.6 L 985.4 533.4 L 981.0 532.2 L 976.7 531.0 L 972.4 529.8 L 968.3 528.6 L 964.2 527.4 L 960.2 526.2 L 956.3 525.1 L 952.5 523.9 L 948.8 522.7 L 945.1 521.5 L 941.5 520.4 L 938.0 519.2 L 934.5 518.1 L 931.1 516.9 L 927.8 515.8 L 924.6 514.6 L 921.4 513.5 L 918.2 512.4 L 915.1 511.2 L 912.1 510.1 L 909.2 509.0 L 906.3 507.9 L 903.4 506.8 L 900.6 505.7 L 897.8 504.6 L 895.1 503.6 L 892.4 502.5 L 889.8 501.4 L 887.2 500.4 L 884.7 499.3 L 882.2 498.3 L 879.8 497.3 L 877.3 496.3 L 875.0 495.3 L 872.6 494.3 L 870.3 493.3 L 868.0 492.3 L 865.8 491.3 L 863.6 490.4 L 861.4 489.5 L 859.3 488.5 L 857.1 487.6 L 855.0 486.7 L 853.0 485.8 L 850.9 484.9 L 848.9 484.1 L 846.9 483.2 L 845.0 482.4 L 843.0 481.5 L 841.1 480.7 L 839.2 479.9 L 837.3 479.1 L 835.5 478.4 L 833.6 477.6 L 831.8 476.9 L 830.0 476.1 L 828.2 475.4 L 826.4 474.7 L 824.7 474.1 L 822.9 473.4 L 821.2 472.8 L 819.5 472.2 L 817.8 471.6 L 816.1 471.0 L 814.4 470.4 L 812.8 469.9 L 811.1 469.3 L 809.5 468.8 L 807.8 468.3 L 806.2 467.9 L 804.6 467.4 L 803.0 467.0 L 801.4 466.6 L 799.8 466.2 L 798.2 465.9 L 796.6 465.5 L 795.0 465.2 L 793.4 465.0 L 791.8 464.7 L 790.2 464.5 L 788.6 464.3 L 787.0 464.1 L 785.4 464.0 L 783.9 463.9 L 782.3 463.8 L 780.7 463.7 L 779.1 463.7 L 777.5 463.7 L 775.9 463.8 L 774.3 463.8 L 772.7 463.9 L 771.0 464.1 L 769.4 464.3 L 767.7 464.5 L 766.1 464.8 L 764.4 465.1 L 762.7 465.4 L 761.0 465.8 L 759.3 466.3 L 757.6 466.8 L 755.9 467.3 L 754.1 467.9 L 752.3 468.5 L 750.5 469.2 L 748.6 470.0 L 746.8 470.8 L 744.9 471.7 L 742.9 472.7 L 741.0 473.7 L 739.0 474.8 L 736.9 476.0 L 734.8 477.3 L 732.7 478.6 L 730.5 480.1 L 728.2 481.7 L 725.9 483.4 L 723.5 485.2 L 721.0 487.1 L 718.4 489.2 L 715.7 491.5 L 712.9 494.0 L 709.9 496.6 L 706.8 499.5 L 703.6 502.7 L 700.1 506.2 L 696.3 510.0 L 692.3 514.3 L 687.8 519.2 L 682.8 524.9 L 677.0 531.6 L 669.9 540.1 L 660.1 552.1 L 635.9 583.2" fill="none" stroke="#98a2b3" stroke-width="0.9" stroke-dasharray="5,7"/>
<text x="661.9" y="792.3" text-anchor="start" dominant-baseline="middle" font-size="13" font-family="Georgia" font-weight="bold" fill="#475467" stroke="white" stroke-opacity="0.96" stroke-width="5" paint-order="stroke fill">50% Quality</text>
<text x="769.5" y="732.7" text-anchor="start" dominant-baseline="middle" font-size="13" font-family="Georgia" font-weight="bold" fill="#475467" stroke="white" stroke-opacity="0.96" stroke-width="5" paint-order="stroke fill">60% Quality</text>
<text x="877.0" y="673.2" text-anchor="start" dominant-baseline="middle" font-size="13" font-family="Georgia" font-weight="bold" fill="#475467" stroke="white" stroke-opacity="0.96" stroke-width="5" paint-order="stroke fill">70% Quality</text>
<text x="984.6" y="613.6" text-anchor="start" dominant-baseline="middle" font-size="13" font-family="Georgia" font-weight="bold" fill="#475467" stroke="white" stroke-opacity="0.96" stroke-width="5" paint-order="stroke fill">80% Quality</text>
<text x="1092.2" y="554.1" text-anchor="start" dominant-baseline="middle" font-size="13" font-family="Georgia" font-weight="bold" fill="#475467" stroke="white" stroke-opacity="0.96" stroke-width="5" paint-order="stroke fill">90% Quality</text>
<path d="M 149.6 1043.8 L 150.4 1047.9 L 151.1 1052.1 L 151.5 1054.2 L 151.9 1056.4 L 152.2 1058.5 L 152.5 1060.7 L 152.7 1061.8 L 152.8 1062.8 L 152.9 1063.3 L 153.0 1063.7 L 153.0 1063.9 L 153.0 1064.2 L 153.1 1064.4 L 153.1 1064.6 L 153.1 1064.7 L 153.1 1064.8 L 153.1 1064.9 L 153.1 1064.9 L 153.1 1064.9 L 153.1 1065.0 L 153.1 1065.0 L 153.1 1065.0 L 153.1 1065.0 L 153.2 1065.0 L 153.2 1065.0 L 153.2 1065.0 L 153.2 1065.0 L 162.8 1059.2 L 172.4 1053.4 L 182.0 1047.6 L 191.6 1041.8 L 201.3 1036.0 L 210.9 1030.2 L 220.5 1024.3 L 230.1 1018.5 L 239.8 1012.7 L 249.4 1006.9 L 259.0 1001.1 L 268.6 995.3 L 278.2 989.5 L 287.9 983.6 L 297.5 977.8 L 307.1 972.0 L 316.7 966.2 L 326.4 960.4 L 336.0 954.6 L 345.6 948.8 L 355.2 943.0 L 364.9 937.1 L 374.5 931.3 L 384.1 925.5 L 393.7 919.7 L 403.3 913.9 L 413.0 908.1 L 422.6 902.3 L 432.2 896.4 L 441.8 890.6 L 451.5 884.8 L 461.1 879.0 L 470.7 873.2 L 480.3 867.4 L 489.9 861.6 L 499.6 855.7 L 509.2 849.9 L 518.8 844.1 L 528.4 838.3 L 538.1 832.5 L 547.7 826.7 L 557.3 820.9 L 566.9 815.1 L 576.6 809.2 L 586.2 803.4 L 595.8 797.6 L 605.4 791.8 L 615.0 786.0 L 624.7 780.2 L 634.3 774.4 L 643.9 768.5 L 653.5 762.7 L 663.2 756.9 L 672.8 751.1 L 682.4 745.3 L 692.0 739.5 L 701.6 733.7 L 711.3 727.9 L 720.9 722.0 L 730.5 716.2 L 740.1 710.4 L 749.8 704.6 L 759.4 698.8 L 769.0 693.0 L 778.6 687.2 L 788.3 681.3 L 797.9 675.5 L 807.5 669.7 L 817.1 663.9 L 826.7 658.1 L 836.4 652.3 L 846.0 646.5 L 855.6 640.6 L 865.2 634.8 L 874.9 629.0 L 884.5 623.2 L 894.1 617.4 L 903.7 611.6 L 913.3 605.8 L 923.0 600.0 L 932.6 594.1 L 942.2 588.3 L 951.8 582.5 L 961.5 576.7 L 971.1 570.9 L 980.7 565.1 L 990.3 559.3 L 1000.0 553.4 L 1009.6 547.6 L 1019.2 541.8 L 1028.8 536.0 L 1038.4 530.2 L 1048.1 524.4 L 1057.7 518.6 L 1067.3 512.7 L 1076.9 506.9 L 1086.6 501.1 L 1096.2 495.3 L 1105.8 489.5 L 1115.4 483.7 L 1118.4 483.7 L 1140.6 483.5 L 1178.3 483.4" fill="none" stroke="#d97706" stroke-width="1.5" stroke-dasharray="8,6"/>
<path d="M 255.4 972.1 L 256.9 975.8 L 258.5 979.4 L 259.3 981.2 L 260.1 983.0 L 260.9 984.8 L 261.8 986.6 L 262.2 987.5 L 262.7 988.4 L 262.9 988.8 L 263.0 989.2 L 263.1 989.3 L 263.2 989.5 L 263.3 989.7 L 263.4 989.9 L 263.4 990.0 L 263.5 990.1 L 263.5 990.1 L 263.5 990.1 L 263.5 990.1 L 263.5 990.2 L 263.6 990.2 L 263.6 990.2 L 263.6 990.2 L 270.7 984.8 L 277.8 979.5 L 284.9 974.1 L 292.0 968.7 L 299.1 963.4 L 306.2 958.0 L 313.3 952.6 L 320.4 947.2 L 327.5 941.9 L 334.6 936.5 L 341.7 931.1 L 348.8 925.7 L 355.9 920.4 L 363.0 915.0 L 370.2 909.6 L 377.3 904.3 L 384.4 898.9 L 391.5 893.5 L 398.6 888.1 L 405.7 882.8 L 412.8 877.4 L 419.9 872.0 L 427.0 866.6 L 434.1 861.3 L 441.2 855.9 L 448.3 850.5 L 455.4 845.2 L 462.5 839.8 L 469.6 834.4 L 476.7 829.0 L 483.8 823.7 L 490.9 818.3 L 498.0 812.9 L 505.2 807.5 L 512.3 802.2 L 519.4 796.8 L 526.5 791.4 L 533.6 786.1 L 540.7 780.7 L 547.8 775.3 L 554.9 769.9 L 562.0 764.6 L 569.1 759.2 L 576.2 753.8 L 583.3 748.4 L 590.4 743.1 L 597.5 737.7 L 604.6 732.3 L 611.7 727.0 L 618.8 721.6 L 625.9 716.2 L 633.0 710.8 L 640.2 705.5 L 647.3 700.1 L 654.4 694.7 L 661.5 689.4 L 668.6 684.0 L 675.7 678.6 L 682.8 673.2 L 689.9 667.9 L 697.0 662.5 L 704.1 657.1 L 711.2 651.7 L 718.3 646.4 L 725.4 641.0 L 732.5 635.6 L 739.6 630.3 L 746.7 624.9 L 753.8 619.5 L 760.9 614.1 L 768.1 608.8 L 775.2 603.4 L 782.3 598.0 L 789.4 592.6 L 796.5 587.3 L 803.6 581.9 L 810.7 576.5 L 817.8 571.2 L 824.9 565.8 L 832.0 560.4 L 839.1 555.0 L 846.2 549.7 L 853.3 544.3 L 860.4 538.9 L 867.5 533.5 L 874.6 528.2 L 881.7 522.8 L 888.8 517.4 L 895.9 512.1 L 903.1 506.7 L 910.2 501.3 L 917.3 495.9 L 924.4 490.6 L 931.5 485.2 L 938.6 479.8 L 945.7 474.4 L 952.8 469.1 L 959.9 463.7 L 967.0 458.3 L 974.1 453.0 L 974.9 452.9 L 1014.2 451.3 L 1102.7 450.1 L 1140.5 450.0 L 1168.2 449.9 L 1190.3 449.9 L 1227.9 449.9" fill="none" stroke="#d97706" stroke-width="1.5" stroke-dasharray="8,6"/>
<path d="M 315.4 923.8 L 317.3 927.1 L 319.4 930.3 L 320.5 931.9 L 321.6 933.5 L 322.8 935.0 L 324.0 936.5 L 324.6 937.3 L 325.2 938.1 L 325.5 938.4 L 325.7 938.6 L 325.8 938.8 L 326.0 938.9 L 326.1 939.1 L 326.2 939.2 L 326.3 939.3 L 326.4 939.4 L 326.4 939.4 L 326.4 939.4 L 326.4 939.5 L 326.4 939.5 L 332.3 934.4 L 338.2 929.4 L 344.0 924.4 L 349.9 919.3 L 355.8 914.3 L 361.6 909.3 L 367.5 904.2 L 373.4 899.2 L 379.3 894.2 L 385.1 889.1 L 391.0 884.1 L 396.9 879.1 L 402.7 874.0 L 408.6 869.0 L 414.5 864.0 L 420.3 858.9 L 426.2 853.9 L 432.1 848.9 L 437.9 843.8 L 443.8 838.8 L 449.7 833.8 L 455.6 828.7 L 461.4 823.7 L 467.3 818.7 L 473.2 813.7 L 479.0 808.6 L 484.9 803.6 L 490.8 798.6 L 496.6 793.5 L 502.5 788.5 L 508.4 783.5 L 514.2 778.4 L 520.1 773.4 L 526.0 768.4 L 531.9 763.3 L 537.7 758.3 L 543.6 753.3 L 549.5 748.2 L 555.3 743.2 L 561.2 738.2 L 567.1 733.1 L 572.9 728.1 L 578.8 723.1 L 584.7 718.0 L 590.5 713.0 L 596.4 708.0 L 602.3 702.9 L 608.2 697.9 L 614.0 692.9 L 619.9 687.8 L 625.8 682.8 L 631.6 677.8 L 637.5 672.7 L 643.4 667.7 L 649.2 662.7 L 655.1 657.6 L 661.0 652.6 L 666.8 647.6 L 672.7 642.5 L 678.6 637.5 L 684.5 632.5 L 690.3 627.4 L 696.2 622.4 L 702.1 617.4 L 707.9 612.3 L 713.8 607.3 L 719.7 602.3 L 725.5 597.3 L 731.4 592.2 L 737.3 587.2 L 743.1 582.2 L 749.0 577.1 L 754.9 572.1 L 760.8 567.1 L 766.6 562.0 L 772.5 557.0 L 778.4 552.0 L 784.2 546.9 L 790.1 541.9 L 796.0 536.9 L 801.8 531.8 L 807.7 526.8 L 813.6 521.8 L 819.4 516.7 L 825.3 511.7 L 831.2 506.7 L 837.1 501.6 L 842.9 496.6 L 848.8 491.6 L 854.7 486.5 L 860.5 481.5 L 866.4 476.5 L 872.3 471.4 L 878.1 466.4 L 884.0 461.4 L 889.9 456.3 L 895.7 451.3 L 901.6 446.3 L 907.5 441.2 L 913.4 436.2 L 924.3 434.6 L 941.8 432.6 L 965.5 430.7 L 1004.7 428.9 L 1043.1 428.0 L 1131.0 427.4 L 1168.6 427.3 L 1196.4 427.3 L 1218.4 427.2 L 1256.0 427.2" fill="none" stroke="#d97706" stroke-width="1.5" stroke-dasharray="8,6"/>
<path d="M 369.3 874.9 L 371.8 877.7 L 374.5 880.3 L 375.9 881.6 L 377.4 882.8 L 379.0 884.0 L 380.6 885.1 L 381.5 885.7 L 382.3 886.2 L 382.7 886.4 L 383.0 886.6 L 383.2 886.7 L 383.4 886.8 L 383.6 886.9 L 383.8 887.0 L 383.9 887.0 L 388.7 882.4 L 393.5 877.8 L 398.3 873.2 L 403.1 868.6 L 408.0 864.0 L 412.8 859.3 L 417.6 854.7 L 422.4 850.1 L 427.2 845.5 L 432.0 840.9 L 436.9 836.2 L 441.7 831.6 L 446.5 827.0 L 451.3 822.4 L 456.1 817.8 L 460.9 813.2 L 465.8 808.5 L 470.6 803.9 L 475.4 799.3 L 480.2 794.7 L 485.0 790.1 L 489.8 785.4 L 494.7 780.8 L 499.5 776.2 L 504.3 771.6 L 509.1 767.0 L 513.9 762.4 L 518.7 757.7 L 523.6 753.1 L 528.4 748.5 L 533.2 743.9 L 538.0 739.3 L 542.8 734.6 L 547.6 730.0 L 552.5 725.4 L 557.3 720.8 L 562.1 716.2 L 566.9 711.6 L 571.7 706.9 L 576.5 702.3 L 581.4 697.7 L 586.2 693.1 L 591.0 688.5 L 595.8 683.8 L 600.6 679.2 L 605.4 674.6 L 610.3 670.0 L 615.1 665.4 L 619.9 660.8 L 624.7 656.1 L 629.5 651.5 L 634.3 646.9 L 639.2 642.3 L 644.0 637.7 L 648.8 633.0 L 653.6 628.4 L 658.4 623.8 L 663.2 619.2 L 668.1 614.6 L 672.9 610.0 L 677.7 605.3 L 682.5 600.7 L 687.3 596.1 L 692.2 591.5 L 697.0 586.9 L 701.8 582.2 L 706.6 577.6 L 711.4 573.0 L 716.2 568.4 L 721.1 563.8 L 725.9 559.2 L 730.7 554.5 L 735.5 549.9 L 740.3 545.3 L 745.1 540.7 L 750.0 536.1 L 754.8 531.4 L 759.6 526.8 L 764.4 522.2 L 769.2 517.6 L 774.0 513.0 L 778.9 508.4 L 783.7 503.7 L 788.5 499.1 L 793.3 494.5 L 798.1 489.9 L 802.9 485.3 L 807.8 480.6 L 812.6 476.0 L 817.4 471.4 L 822.2 466.8 L 827.0 462.2 L 831.8 457.6 L 836.7 452.9 L 841.5 448.3 L 846.3 443.7 L 851.1 439.1 L 855.9 434.5 L 860.7 429.8 L 865.6 425.2 L 868.3 424.3 L 896.7 416.6 L 911.1 413.9 L 928.8 411.3 L 939.7 410.0 L 952.8 408.8 L 969.3 407.6 L 992.2 406.5 L 1030.7 405.4 L 1068.7 404.8 L 1156.3 404.4 L 1193.9 404.3 L 1221.7 404.3 L 1243.7 404.3 L 1281.3 404.3" fill="none" stroke="#d97706" stroke-width="1.5" stroke-dasharray="8,6"/>
<path d="M 465.0 773.6 L 469.2 774.6 L 474.0 774.9 L 476.8 774.8 L 479.8 774.4 L 483.1 773.7 L 487.0 772.3 L 489.2 771.4 L 491.7 770.2 L 492.4 769.8 L 495.3 766.5 L 498.2 763.1 L 501.1 759.8 L 504.0 756.4 L 506.8 753.1 L 509.7 749.7 L 512.6 746.4 L 515.5 743.1 L 518.4 739.7 L 521.2 736.4 L 524.1 733.0 L 527.0 729.7 L 529.9 726.3 L 532.8 723.0 L 535.6 719.6 L 538.5 716.3 L 541.4 713.0 L 544.3 709.6 L 547.2 706.3 L 550.0 702.9 L 552.9 699.6 L 555.8 696.2 L 558.7 692.9 L 561.6 689.5 L 564.4 686.2 L 567.3 682.9 L 570.2 679.5 L 573.1 676.2 L 576.0 672.8 L 578.8 669.5 L 581.7 666.1 L 584.6 662.8 L 587.5 659.4 L 590.4 656.1 L 593.2 652.7 L 596.1 649.4 L 599.0 646.1 L 601.9 642.7 L 604.8 639.4 L 607.6 636.0 L 610.5 632.7 L 613.4 629.3 L 616.3 626.0 L 619.1 622.6 L 622.0 619.3 L 624.9 616.0 L 627.8 612.6 L 630.7 609.3 L 633.5 605.9 L 636.4 602.6 L 639.3 599.2 L 642.2 595.9 L 645.1 592.5 L 647.9 589.2 L 650.8 585.9 L 653.7 582.5 L 656.6 579.2 L 659.5 575.8 L 662.3 572.5 L 665.2 569.1 L 668.1 565.8 L 671.0 562.4 L 673.9 559.1 L 676.7 555.8 L 679.6 552.4 L 682.5 549.1 L 685.4 545.7 L 688.3 542.4 L 691.1 539.0 L 694.0 535.7 L 696.9 532.3 L 699.8 529.0 L 702.7 525.6 L 705.5 522.3 L 708.4 519.0 L 711.3 515.6 L 714.2 512.3 L 717.1 508.9 L 719.9 505.6 L 722.8 502.2 L 725.7 498.9 L 728.6 495.5 L 731.5 492.2 L 734.3 488.9 L 737.2 485.5 L 740.1 482.2 L 743.0 478.8 L 745.9 475.5 L 748.7 472.1 L 751.6 468.8 L 754.5 465.4 L 757.4 462.1 L 760.3 458.8 L 763.1 455.4 L 766.0 452.1 L 768.9 448.7 L 771.8 445.4 L 774.7 442.0 L 777.5 438.7 L 780.4 435.3 L 790.7 426.6 L 823.2 403.0 L 839.8 393.4 L 857.7 384.8 L 878.6 377.1 L 905.3 369.9 L 923.1 366.6 L 947.2 363.4 L 960.1 362.2 L 976.4 360.9 L 986.7 360.3 L 999.2 359.7 L 1015.2 359.1 L 1037.6 358.6 L 1075.5 358.0 L 1113.3 357.7 L 1200.7 357.4 L 1238.3 357.4 L 1266.0 357.4 L 1288.0 357.4 L 1325.6 357.4" fill="none" stroke="#d97706" stroke-width="1.5" stroke-dasharray="8,6"/>
<path d="M 552.2 663.5 L 560.5 659.3 L 572.0 651.2 L 580.3 643.7 L 593.4 630.2 L 635.8 577.5 L 762.4 419.3 L 801.1 381.5 L 840.1 352.5 L 858.0 342.5 L 878.8 333.3 L 891.2 328.9 L 905.6 324.7 L 923.5 320.6 L 947.7 316.6 L 964.3 314.7 L 987.3 312.8 L 999.9 312.0 L 1015.9 311.3 L 1026.0 310.9 L 1038.3 310.5 L 1054.1 310.1 L 1076.3 309.8 L 1114.0 309.4 L 1151.7 309.2 L 1239.1 309.1 L 1276.7 309.0 L 1304.4 309.0 L 1326.4 309.0 L 1364.0 309.0" fill="none" stroke="#d97706" stroke-width="1.5" stroke-dasharray="8,6"/>
<path d="M 637.6 538.5 L 656.1 519.2 L 689.9 478.0 L 718.2 441.8 L 753.3 397.9 L 791.0 355.5 L 832.0 318.3 L 855.9 301.7 L 885.4 286.4 L 900.3 280.6 L 918.7 275.0 L 929.9 272.3 L 943.3 269.6 L 960.2 266.9 L 983.4 264.3 L 999.7 263.0 L 1022.3 261.7 L 1034.6 261.2 L 1050.5 260.6 L 1060.5 260.4 L 1072.7 260.1 L 1088.4 259.9 L 1110.5 259.6 L 1148.2 259.4 L 1185.9 259.2 L 1273.2 259.1 L 1310.8 259.1 L 1338.5 259.1 L 1360.5 259.1 L 1398.1 259.1" fill="none" stroke="#d97706" stroke-width="1.5" stroke-dasharray="8,6"/>
<path d="M 716.1 407.8 L 740.7 378.6 L 774.2 338.3 L 794.4 315.6 L 817.0 292.3 L 842.9 269.3 L 874.7 247.3 L 894.9 236.8 L 921.3 226.7 L 935.1 222.8 L 952.4 218.9 L 963.1 216.9 L 976.0 215.0 L 992.4 213.1 L 1015.2 211.3 L 1031.2 210.3 L 1053.6 209.4 L 1065.9 209.0 L 1081.7 208.6 L 1091.6 208.5 L 1103.8 208.3 L 1119.5 208.1 L 1141.6 207.9 L 1179.2 207.7 L 1216.9 207.6 L 1304.2 207.6 L 1341.8 207.5 L 1369.5 207.5 L 1391.4 207.5 L 1429.0 207.5" fill="none" stroke="#d97706" stroke-width="1.5" stroke-dasharray="8,6"/>
<path d="M 775.5 297.0 L 797.5 272.6 L 824.6 244.4 L 840.6 229.3 L 859.0 213.9 L 880.8 198.5 L 908.9 183.3 L 927.5 175.8 L 952.4 168.5 L 965.7 165.6 L 982.4 162.7 L 992.9 161.3 L 1005.5 159.9 L 1021.7 158.5 L 1044.2 157.1 L 1060.1 156.4 L 1082.4 155.7 L 1094.6 155.4 L 1110.3 155.1 L 1120.2 155.0 L 1132.4 154.8 L 1148.0 154.7 L 1170.1 154.6 L 1207.7 154.4 L 1245.3 154.4 L 1332.6 154.3 L 1370.2 154.3 L 1397.9 154.3 L 1419.9 154.3 L 1457.5 154.3" fill="none" stroke="#d97706" stroke-width="1.5" stroke-dasharray="8,6"/>
<path d="M 819.8 205.4 L 839.0 186.8 L 862.4 166.2 L 876.4 155.2 L 892.7 144.1 L 912.6 132.8 L 938.8 121.5 L 956.5 115.9 L 980.5 110.3 L 993.4 108.1 L 1009.9 105.9 L 1020.1 104.8 L 1032.6 103.7 L 1048.7 102.6 L 1071.0 101.5 L 1086.8 101.0 L 1109.0 100.4 L 1121.2 100.2 L 1136.9 100.0 L 1146.8 99.9 L 1159.0 99.8 L 1174.6 99.7 L 1196.6 99.6 L 1234.3 99.5 L 1271.9 99.4 L 1359.2 99.4 L 1396.7 99.4 L 1424.4 99.4 L 1446.4 99.4 L 1484.0 99.4" fill="none" stroke="#d97706" stroke-width="1.5" stroke-dasharray="8,6"/>
<text x="1192.3" y="483.4" text-anchor="start" dominant-baseline="middle" font-size="13" font-family="Georgia" font-weight="bold" fill="#b45309" stroke="white" stroke-opacity="0.96" stroke-width="5" paint-order="stroke fill">25°C</text>
<text x="1241.9" y="452.3" text-anchor="start" dominant-baseline="middle" font-size="13" font-family="Georgia" font-weight="bold" fill="#b45309" stroke="white" stroke-opacity="0.96" stroke-width="5" paint-order="stroke fill">100°C</text>
<text x="1270.0" y="428.3" text-anchor="start" dominant-baseline="middle" font-size="13" font-family="Georgia" font-weight="bold" fill="#b45309" stroke="white" stroke-opacity="0.96" stroke-width="5" paint-order="stroke fill">150°C</text>
<text x="1295.3" y="404.3" text-anchor="start" dominant-baseline="middle" font-size="13" font-family="Georgia" font-weight="bold" fill="#b45309" stroke="white" stroke-opacity="0.96" stroke-width="5" paint-order="stroke fill">200°C</text>
<text x="1339.6" y="357.4" text-anchor="start" dominant-baseline="middle" font-size="13" font-family="Georgia" font-weight="bold" fill="#b45309" stroke="white" stroke-opacity="0.96" stroke-width="5" paint-order="stroke fill">300°C</text>
<text x="1378.0" y="309.0" text-anchor="start" dominant-baseline="middle" font-size="13" font-family="Georgia" font-weight="bold" fill="#b45309" stroke="white" stroke-opacity="0.96" stroke-width="5" paint-order="stroke fill">400°C</text>
<text x="1412.1" y="259.1" text-anchor="start" dominant-baseline="middle" font-size="13" font-family="Georgia" font-weight="bold" fill="#b45309" stroke="white" stroke-opacity="0.96" stroke-width="5" paint-order="stroke fill">500°C</text>
<text x="1443.0" y="207.5" text-anchor="start" dominant-baseline="middle" font-size="13" font-family="Georgia" font-weight="bold" fill="#b45309" stroke="white" stroke-opacity="0.96" stroke-width="5" paint-order="stroke fill">600°C</text>
<text x="1471.5" y="154.3" text-anchor="start" dominant-baseline="middle" font-size="13" font-family="Georgia" font-weight="bold" fill="#b45309" stroke="white" stroke-opacity="0.96" stroke-width="5" paint-order="stroke fill">700°C</text>
<text x="1498.0" y="99.4" text-anchor="start" dominant-baseline="middle" font-size="13" font-family="Georgia" font-weight="bold" fill="#b45309" stroke="white" stroke-opacity="0.96" stroke-width="5" paint-order="stroke fill">800°C</text>
<path d="M 110.3 1089.8 L 131.8 1077.9 L 153.3 1066.0 L 174.8 1054.1 L 196.3 1042.2 L 217.8 1030.3 L 239.3 1018.4 L 260.8 1006.5 L 282.3 994.6 L 303.8 982.6 L 325.3 970.7 L 346.8 958.8 L 368.3 946.9 L 389.8 935.0 L 411.3 923.1 L 432.8 911.2 L 454.3 899.3 L 475.8 887.4 L 497.3 875.5 L 518.8 863.6 L 540.3 851.7 L 561.8 839.8 L 583.3 827.9 L 604.8 816.0 L 626.3 804.0 L 647.8 792.1 L 669.3 780.2 L 690.8 768.3 L 712.3 756.4 L 733.7 744.5 L 755.2 732.6 L 776.7 720.7 L 798.2 708.8 L 819.7 696.9 L 841.2 685.0 L 862.7 673.1 L 884.2 661.2 L 905.7 649.3 L 927.2 637.3 L 948.7 625.4 L 970.2 613.5 L 991.7 601.6 L 1013.2 589.7 L 1034.7 577.8 L 1056.2 565.9 L 1077.7 554.0 L 1099.2 542.1 L 1120.7 530.2 L 1142.2 518.3 L 1163.7 506.4 L 1185.2 494.5 L 1185.2 494.5 L 1185.2 494.4 L 1185.3 494.4 L 1185.4 494.4 L 1185.6 494.2 L 1186.0 494.0 L 1190.2 491.6 L 1194.4 489.3 L 1198.5 486.9 L 1202.4 484.5 L 1206.4 482.1 L 1210.2 479.8 L 1214.0 477.4 L 1217.7 475.0 L 1221.4 472.7 L 1225.0 470.3 L 1228.6 467.9 L 1232.1 465.5 L 1235.5 463.1 L 1238.9 460.8 L 1242.3 458.4 L 1245.6 456.0 L 1248.8 453.6 L 1252.0 451.2 L 1255.2 448.8 L 1258.4 446.4 L 1261.4 444.0 L 1264.5 441.6 L 1267.5 439.2 L 1270.5 436.8 L 1273.4 434.3 L 1276.3 431.9 L 1279.2 429.5 L 1282.1 427.1 L 1284.9 424.7 L 1287.7 422.2 L 1290.4 419.8 L 1293.1 417.3 L 1295.8 414.9 L 1298.5 412.5 L 1301.1 410.0 L 1303.7 407.6 L 1306.3 405.1 L 1308.9 402.6 L 1311.4 400.2 L 1313.9 397.7 L 1316.4 395.2 L 1318.9 392.8 L 1321.4 390.3 L 1323.8 387.8 L 1326.2 385.3 L 1328.6 382.8 L 1330.9 380.3 L 1333.3 377.8 L 1335.6 375.3 L 1337.9 372.8 L 1340.2 370.3 L 1342.4 367.8 L 1344.7 365.3 L 1346.9 362.7 L 1349.1 360.2 L 1351.3 357.7 L 1353.5 355.1 L 1355.6 352.6 L 1357.8 350.0 L 1359.9 347.5 L 1362.0 344.9 L 1364.1 342.4 L 1366.2 339.8 L 1368.3 337.3 L 1370.3 334.7 L 1372.4 332.1 L 1374.4 329.5 L 1376.4 326.9 L 1378.4 324.4 L 1380.4 321.8 L 1382.4 319.2 L 1384.3 316.6 L 1386.3 314.0 L 1388.2 311.3 L 1390.1 308.7 L 1392.0 306.1 L 1393.9 303.5 L 1395.8 300.9 L 1397.7 298.2 L 1399.6 295.6 L 1401.4 293.0 L 1403.3 290.3 L 1405.1 287.7 L 1406.9 285.0 L 1408.7 282.3 L 1410.5 279.7 L 1412.3 277.0 L 1414.1 274.3 L 1415.9 271.7 L 1417.6 269.0 L 1419.4 266.3 L 1421.1 263.6 L 1422.9 260.9 L 1424.6 258.2 L 1426.3 255.5 L 1428.0 252.8 L 1429.7 250.1 L 1431.4 247.3 L 1433.1 244.6 L 1434.8 241.9 L 1436.4 239.2 L 1438.1 236.4 L 1439.7 233.7 L 1441.4 230.9 L 1443.0 228.2 L 1444.6 225.4 L 1446.3 222.7 L 1447.9 219.9 L 1449.5 217.1 L 1451.1 214.3 L 1452.7 211.6 L 1454.3 208.8 L 1455.8 206.0 L 1457.4 203.2 L 1459.0 200.4 L 1460.5 197.6 L 1462.1 194.8 L 1463.6 192.0 L 1465.2 189.1 L 1466.7 186.3 L 1468.2 183.5 L 1469.7 180.7 L 1471.2 177.8 L 1472.7 175.0 L 1474.2 172.1 L 1475.7 169.3 L 1477.2 166.4 L 1478.7 163.5 L 1480.2 160.7 L 1481.7 157.8 L 1483.1 154.9 L 1484.6 152.1 L 1486.0 149.2 L 1487.5 146.3 L 1488.9 143.4 L 1490.4 140.5 L 1491.8 137.6 L 1493.2 134.7 L 1494.6 131.7 L 1496.1 128.8 L 1497.5 125.9 L 1498.9 123.0 L 1500.3 120.0 L 1501.7 117.1 L 1503.1 114.2 L 1504.4 111.2 L 1505.8 108.3 L 1507.2 105.3 L 1508.6 102.3 L 1509.9 99.4" fill="none" stroke="#3b6db6" stroke-width="1.5" stroke-dasharray="10,8"/>
<text x="1163.7" y="492.4" text-anchor="middle" font-size="13" font-family="Georgia" font-weight="bold" fill="#2f5ea8" stroke="white" stroke-opacity="0.96" stroke-width="5" paint-order="stroke fill" transform="rotate(-29.0,1163.7,492.4)">0.00062 MPa</text>
<path d="M 186.3 1044.3 L 203.9 1032.9 L 221.5 1021.5 L 239.2 1010.2 L 256.8 998.8 L 274.4 987.4 L 292.0 976.0 L 309.7 964.6 L 327.3 953.2 L 344.9 941.8 L 362.5 930.4 L 380.1 919.0 L 397.8 907.6 L 415.4 896.2 L 433.0 884.9 L 450.6 873.5 L 468.3 862.1 L 485.9 850.7 L 503.5 839.3 L 521.1 827.9 L 538.8 816.5 L 556.4 805.1 L 574.0 793.7 L 591.6 782.3 L 609.3 771.0 L 626.9 759.6 L 644.5 748.2 L 662.1 736.8 L 679.8 725.4 L 697.4 714.0 L 715.0 702.6 L 732.6 691.2 L 750.3 679.8 L 767.9 668.4 L 785.5 657.0 L 803.1 645.7 L 820.8 634.3 L 838.4 622.9 L 856.0 611.5 L 873.6 600.1 L 891.3 588.7 L 908.9 577.3 L 926.5 565.9 L 944.1 554.5 L 961.7 543.1 L 979.4 531.7 L 997.0 520.4 L 1014.6 509.0 L 1032.2 497.6 L 1049.9 486.2 L 1067.5 474.8 L 1067.5 474.8 L 1067.5 474.8 L 1067.6 474.7 L 1067.7 474.7 L 1067.9 474.6 L 1068.2 474.3 L 1071.7 472.0 L 1075.2 469.7 L 1078.6 467.4 L 1081.9 465.2 L 1085.2 462.9 L 1088.4 460.6 L 1091.6 458.3 L 1094.8 456.0 L 1097.9 453.8 L 1100.9 451.5 L 1104.0 449.2 L 1106.9 446.9 L 1109.9 444.6 L 1112.8 442.4 L 1115.6 440.1 L 1118.5 437.8 L 1121.3 435.5 L 1124.0 433.2 L 1126.8 430.9 L 1129.5 428.6 L 1132.2 426.3 L 1134.8 424.0 L 1137.4 421.7 L 1140.0 419.4 L 1142.6 417.1 L 1145.2 414.8 L 1147.7 412.5 L 1150.2 410.2 L 1152.6 407.9 L 1155.1 405.6 L 1157.5 403.2 L 1159.9 400.9 L 1162.3 398.6 L 1164.6 396.3 L 1167.0 393.9 L 1169.3 391.6 L 1171.6 389.2 L 1173.9 386.9 L 1176.1 384.5 L 1178.4 382.2 L 1180.6 379.8 L 1182.8 377.5 L 1185.0 375.1 L 1187.2 372.7 L 1189.3 370.4 L 1191.5 368.0 L 1193.6 365.6 L 1195.7 363.2 L 1197.8 360.8 L 1199.8 358.5 L 1201.9 356.1 L 1203.9 353.7 L 1206.0 351.3 L 1208.0 348.9 L 1210.0 346.5 L 1212.0 344.0 L 1213.9 341.6 L 1215.9 339.2 L 1217.9 336.8 L 1219.8 334.4 L 1221.7 331.9 L 1223.6 329.5 L 1225.5 327.1 L 1227.4 324.6 L 1229.3 322.2 L 1231.1 319.7 L 1233.0 317.3 L 1234.8 314.8 L 1236.7 312.4 L 1238.5 309.9 L 1240.3 307.4 L 1242.1 305.0 L 1243.9 302.5 L 1245.6 300.0 L 1247.4 297.5 L 1249.2 295.0 L 1250.9 292.5 L 1252.7 290.0 L 1254.4 287.5 L 1256.1 285.0 L 1257.8 282.5 L 1259.5 280.0 L 1261.2 277.5 L 1262.9 275.0 L 1264.6 272.5 L 1266.2 269.9 L 1267.9 267.4 L 1269.5 264.9 L 1271.2 262.3 L 1272.8 259.8 L 1274.4 257.2 L 1276.0 254.7 L 1277.7 252.1 L 1279.3 249.6 L 1280.8 247.0 L 1282.4 244.4 L 1284.0 241.8 L 1285.6 239.3 L 1287.1 236.7 L 1288.7 234.1 L 1290.3 231.5 L 1291.8 228.9 L 1293.3 226.3 L 1294.9 223.7 L 1296.4 221.1 L 1297.9 218.5 L 1299.4 215.9 L 1300.9 213.3 L 1302.4 210.6 L 1303.9 208.0 L 1305.4 205.4 L 1306.9 202.7 L 1308.3 200.1 L 1309.8 197.4 L 1311.3 194.8 L 1312.7 192.1 L 1314.2 189.5 L 1315.6 186.8 L 1317.1 184.2 L 1318.5 181.5 L 1319.9 178.8 L 1321.3 176.1 L 1322.8 173.4 L 1324.2 170.8 L 1325.6 168.1 L 1327.0 165.4 L 1328.4 162.7 L 1329.8 160.0 L 1331.1 157.3 L 1332.5 154.5 L 1333.9 151.8 L 1335.3 149.1 L 1336.6 146.4 L 1338.0 143.6 L 1339.4 140.9 L 1340.7 138.2 L 1342.1 135.4 L 1343.4 132.7 L 1344.7 129.9 L 1346.1 127.2 L 1347.4 124.4 L 1348.7 121.6 L 1350.0 118.9 L 1351.4 116.1 L 1352.7 113.3 L 1354.0 110.5 L 1355.3 107.8 L 1356.6 105.0 L 1357.9 102.2 L 1359.2 99.4" fill="none" stroke="#3b6db6" stroke-width="1.5" stroke-dasharray="10,8"/>
<text x="1071.7" y="482.0" text-anchor="middle" font-size="13" font-family="Georgia" font-weight="bold" fill="#2f5ea8" stroke="white" stroke-opacity="0.96" stroke-width="5" paint-order="stroke fill" transform="rotate(-33.4,1071.7,482.0)">0.01 MPa</text>
<path d="M 263.1 990.6 L 277.3 979.9 L 291.5 969.1 L 305.7 958.4 L 320.0 947.6 L 334.2 936.9 L 348.4 926.1 L 362.7 915.4 L 376.9 904.6 L 391.1 893.9 L 405.4 883.1 L 419.6 872.4 L 433.8 861.6 L 448.1 850.9 L 462.3 840.1 L 476.5 829.4 L 490.8 818.6 L 505.0 807.9 L 519.2 797.1 L 533.5 786.4 L 547.7 775.6 L 561.9 764.9 L 576.2 754.1 L 590.4 743.4 L 604.6 732.6 L 618.9 721.9 L 633.1 711.1 L 647.3 700.4 L 661.6 689.6 L 675.8 678.9 L 690.0 668.1 L 704.2 657.4 L 718.5 646.6 L 732.7 635.9 L 746.9 625.1 L 761.2 614.4 L 775.4 603.6 L 789.6 592.9 L 803.9 582.1 L 818.1 571.4 L 832.3 560.6 L 846.6 549.9 L 860.8 539.1 L 875.0 528.4 L 889.3 517.6 L 903.5 506.9 L 917.7 496.1 L 932.0 485.4 L 946.2 474.6 L 960.4 463.9 L 974.7 453.1 L 974.7 453.1 L 974.7 453.1 L 974.7 453.1 L 974.8 453.0 L 975.0 452.9 L 975.3 452.6 L 978.3 450.3 L 981.3 448.1 L 984.2 445.8 L 987.0 443.5 L 989.8 441.3 L 992.6 439.1 L 995.3 436.9 L 997.9 434.6 L 1000.6 432.4 L 1003.2 430.2 L 1005.8 428.0 L 1008.3 425.8 L 1010.8 423.6 L 1013.3 421.4 L 1015.8 419.2 L 1018.2 417.0 L 1020.6 414.8 L 1023.0 412.6 L 1025.3 410.4 L 1027.6 408.3 L 1030.0 406.1 L 1032.2 403.9 L 1034.5 401.7 L 1036.7 399.5 L 1039.0 397.3 L 1041.2 395.1 L 1043.3 392.9 L 1045.5 390.7 L 1047.6 388.5 L 1049.8 386.3 L 1051.9 384.1 L 1054.0 381.9 L 1056.1 379.7 L 1058.1 377.4 L 1060.2 375.2 L 1062.2 373.0 L 1064.2 370.8 L 1066.2 368.6 L 1068.2 366.4 L 1070.1 364.1 L 1072.1 361.9 L 1074.0 359.7 L 1076.0 357.4 L 1077.9 355.2 L 1079.8 353.0 L 1081.7 350.7 L 1083.5 348.5 L 1085.4 346.2 L 1087.3 344.0 L 1089.1 341.7 L 1090.9 339.5 L 1092.7 337.2 L 1094.5 335.0 L 1096.3 332.7 L 1098.1 330.4 L 1099.9 328.2 L 1101.6 325.9 L 1103.4 323.6 L 1105.1 321.3 L 1106.9 319.0 L 1108.6 316.8 L 1110.3 314.5 L 1112.0 312.2 L 1113.7 309.9 L 1115.4 307.6 L 1117.0 305.3 L 1118.7 303.0 L 1120.4 300.7 L 1122.0 298.4 L 1123.6 296.0 L 1125.3 293.7 L 1126.9 291.4 L 1128.5 289.1 L 1130.1 286.7 L 1131.7 284.4 L 1133.3 282.1 L 1134.9 279.7 L 1136.4 277.4 L 1138.0 275.1 L 1139.6 272.7 L 1141.1 270.4 L 1142.7 268.0 L 1144.2 265.6 L 1145.7 263.3 L 1147.2 260.9 L 1148.8 258.5 L 1150.3 256.2 L 1151.8 253.8 L 1153.3 251.4 L 1154.7 249.0 L 1156.2 246.6 L 1157.7 244.3 L 1159.2 241.9 L 1160.6 239.5 L 1162.1 237.1 L 1163.5 234.7 L 1165.0 232.3 L 1166.4 229.8 L 1167.8 227.4 L 1169.3 225.0 L 1170.7 222.6 L 1172.1 220.2 L 1173.5 217.7 L 1174.9 215.3 L 1176.3 212.9 L 1177.7 210.4 L 1179.1 208.0 L 1180.5 205.5 L 1181.8 203.1 L 1183.2 200.6 L 1184.6 198.2 L 1185.9 195.7 L 1187.3 193.2 L 1188.6 190.8 L 1190.0 188.3 L 1191.3 185.8 L 1192.6 183.3 L 1194.0 180.9 L 1195.3 178.4 L 1196.6 175.9 L 1197.9 173.4 L 1199.2 170.9 L 1200.6 168.4 L 1201.9 165.9 L 1203.2 163.4 L 1204.4 160.9 L 1205.7 158.3 L 1207.0 155.8 L 1208.3 153.3 L 1209.6 150.8 L 1210.8 148.2 L 1212.1 145.7 L 1213.4 143.2 L 1214.6 140.6 L 1215.9 138.1 L 1217.1 135.5 L 1218.4 133.0 L 1219.6 130.4 L 1220.9 127.9 L 1222.1 125.3 L 1223.3 122.7 L 1224.6 120.2 L 1225.8 117.6 L 1227.0 115.0 L 1228.2 112.4 L 1229.4 109.9 L 1230.6 107.3 L 1231.9 104.7 L 1233.1 102.1 L 1234.3 99.5" fill="none" stroke="#3b6db6" stroke-width="1.5" stroke-dasharray="10,8"/>
<text x="1000.6" y="418.4" text-anchor="middle" font-size="13" font-family="Georgia" font-weight="bold" fill="#2f5ea8" stroke="white" stroke-opacity="0.96" stroke-width="5" paint-order="stroke fill" transform="rotate(-40.1,1000.6,418.4)">0.1 MPa</text>
<path d="M 328.6 937.6 L 340.3 927.5 L 351.9 917.5 L 363.6 907.5 L 375.2 897.4 L 386.9 887.4 L 398.6 877.3 L 410.2 867.3 L 421.9 857.3 L 433.5 847.2 L 445.2 837.2 L 456.8 827.2 L 468.5 817.1 L 480.1 807.1 L 491.8 797.0 L 503.5 787.0 L 515.1 777.0 L 526.8 766.9 L 538.4 756.9 L 550.1 746.9 L 561.7 736.8 L 573.4 726.8 L 585.1 716.7 L 596.7 706.7 L 608.4 696.7 L 620.0 686.6 L 631.7 676.6 L 643.3 666.6 L 655.0 656.5 L 666.6 646.5 L 678.3 636.4 L 690.0 626.4 L 701.6 616.4 L 713.3 606.3 L 724.9 596.3 L 736.6 586.3 L 748.2 576.2 L 759.9 566.2 L 771.5 556.1 L 783.2 546.1 L 794.9 536.1 L 806.5 526.0 L 818.2 516.0 L 829.8 506.0 L 841.5 495.9 L 853.1 485.9 L 864.8 475.8 L 876.5 465.8 L 888.1 455.8 L 899.8 445.7 L 911.4 435.7 L 911.4 435.7 L 911.5 435.7 L 911.5 435.6 L 911.6 435.5 L 911.8 435.4 L 912.1 435.1 L 914.9 432.7 L 917.6 430.3 L 920.3 427.9 L 922.9 425.6 L 925.4 423.3 L 927.9 421.0 L 930.4 418.8 L 932.8 416.5 L 935.2 414.3 L 937.5 412.1 L 939.8 409.9 L 942.1 407.7 L 944.4 405.5 L 946.6 403.3 L 948.8 401.1 L 950.9 399.0 L 953.1 396.8 L 955.2 394.7 L 957.3 392.5 L 959.4 390.4 L 961.4 388.2 L 963.5 386.1 L 965.5 383.9 L 967.5 381.8 L 969.5 379.7 L 971.4 377.6 L 973.4 375.4 L 975.3 373.3 L 977.2 371.2 L 979.1 369.1 L 981.0 366.9 L 982.8 364.8 L 984.7 362.7 L 986.5 360.6 L 988.3 358.4 L 990.1 356.3 L 991.9 354.2 L 993.7 352.1 L 995.5 350.0 L 997.3 347.8 L 999.0 345.7 L 1000.7 343.6 L 1002.5 341.4 L 1004.2 339.3 L 1005.9 337.2 L 1007.6 335.1 L 1009.2 332.9 L 1010.9 330.8 L 1012.6 328.7 L 1014.2 326.5 L 1015.9 324.4 L 1017.5 322.2 L 1019.1 320.1 L 1020.7 317.9 L 1022.3 315.8 L 1023.9 313.7 L 1025.5 311.5 L 1027.1 309.3 L 1028.6 307.2 L 1030.2 305.0 L 1031.8 302.9 L 1033.3 300.7 L 1034.8 298.6 L 1036.4 296.4 L 1037.9 294.2 L 1039.4 292.0 L 1040.9 289.9 L 1042.4 287.7 L 1043.9 285.5 L 1045.4 283.3 L 1046.8 281.2 L 1048.3 279.0 L 1049.8 276.8 L 1051.2 274.6 L 1052.7 272.4 L 1054.1 270.2 L 1055.5 268.0 L 1057.0 265.8 L 1058.4 263.6 L 1059.8 261.4 L 1061.2 259.2 L 1062.6 257.0 L 1064.0 254.8 L 1065.4 252.6 L 1066.8 250.3 L 1068.2 248.1 L 1069.6 245.9 L 1070.9 243.7 L 1072.3 241.4 L 1073.6 239.2 L 1075.0 237.0 L 1076.3 234.7 L 1077.7 232.5 L 1079.0 230.2 L 1080.3 228.0 L 1081.7 225.8 L 1083.0 223.5 L 1084.3 221.2 L 1085.6 219.0 L 1086.9 216.7 L 1088.2 214.5 L 1089.5 212.2 L 1090.8 209.9 L 1092.1 207.7 L 1093.4 205.4 L 1094.6 203.1 L 1095.9 200.8 L 1097.2 198.5 L 1098.4 196.2 L 1099.7 194.0 L 1101.0 191.7 L 1102.2 189.4 L 1103.4 187.1 L 1104.7 184.8 L 1105.9 182.5 L 1107.2 180.2 L 1108.4 177.8 L 1109.6 175.5 L 1110.8 173.2 L 1112.0 170.9 L 1113.3 168.6 L 1114.5 166.2 L 1115.7 163.9 L 1116.9 161.6 L 1118.1 159.3 L 1119.3 156.9 L 1120.4 154.6 L 1121.6 152.2 L 1122.8 149.9 L 1124.0 147.5 L 1125.2 145.2 L 1126.3 142.8 L 1127.5 140.5 L 1128.7 138.1 L 1129.8 135.7 L 1131.0 133.4 L 1132.1 131.0 L 1133.3 128.6 L 1134.4 126.2 L 1135.6 123.9 L 1136.7 121.5 L 1137.8 119.1 L 1139.0 116.7 L 1140.1 114.3 L 1141.2 111.9 L 1142.4 109.5 L 1143.5 107.1 L 1144.6 104.7 L 1145.7 102.3 L 1146.8 99.9" fill="none" stroke="#3b6db6" stroke-width="1.5" stroke-dasharray="10,8"/>
<text x="953.1" y="406.8" text-anchor="middle" font-size="13" font-family="Georgia" font-weight="bold" fill="#2f5ea8" stroke="white" stroke-opacity="0.96" stroke-width="5" paint-order="stroke fill" transform="rotate(-45.3,953.1,406.8)">0.5 MPa</text>
<path d="M 361.3 908.4 L 371.7 898.8 L 382.2 889.2 L 392.6 879.6 L 403.1 870.0 L 413.5 860.4 L 424.0 850.9 L 434.4 841.3 L 444.9 831.7 L 455.3 822.1 L 465.8 812.5 L 476.2 802.9 L 486.7 793.3 L 497.1 783.7 L 507.6 774.1 L 518.0 764.5 L 528.5 754.9 L 538.9 745.3 L 549.4 735.7 L 559.8 726.2 L 570.3 716.6 L 580.7 707.0 L 591.2 697.4 L 601.6 687.8 L 612.1 678.2 L 622.5 668.6 L 632.9 659.0 L 643.4 649.4 L 653.8 639.8 L 664.3 630.2 L 674.7 620.6 L 685.2 611.0 L 695.6 601.4 L 706.1 591.9 L 716.5 582.3 L 727.0 572.7 L 737.4 563.1 L 747.9 553.5 L 758.3 543.9 L 768.8 534.3 L 779.2 524.7 L 789.7 515.1 L 800.1 505.5 L 810.6 495.9 L 821.0 486.3 L 831.5 476.7 L 841.9 467.2 L 852.4 457.6 L 862.8 448.0 L 873.3 438.4 L 883.7 428.8 L 883.7 428.8 L 883.8 428.7 L 883.8 428.7 L 883.9 428.6 L 884.1 428.5 L 884.4 428.1 L 887.2 425.5 L 890.0 423.0 L 892.6 420.5 L 895.1 418.1 L 897.6 415.7 L 900.1 413.4 L 902.5 411.0 L 904.8 408.7 L 907.1 406.4 L 909.4 404.2 L 911.6 401.9 L 913.8 399.7 L 916.0 397.4 L 918.2 395.2 L 920.3 393.0 L 922.3 390.9 L 924.4 388.7 L 926.4 386.5 L 928.4 384.4 L 930.4 382.2 L 932.4 380.1 L 934.3 377.9 L 936.3 375.8 L 938.2 373.7 L 940.0 371.5 L 941.9 369.4 L 943.8 367.3 L 945.6 365.2 L 947.4 363.1 L 949.2 361.0 L 951.0 358.9 L 952.8 356.8 L 954.5 354.7 L 956.3 352.6 L 958.0 350.5 L 959.7 348.4 L 961.4 346.3 L 963.1 344.3 L 964.8 342.2 L 966.5 340.1 L 968.1 338.0 L 969.8 335.9 L 971.4 333.8 L 973.0 331.7 L 974.6 329.7 L 976.2 327.6 L 977.8 325.5 L 979.4 323.4 L 981.0 321.3 L 982.6 319.2 L 984.1 317.1 L 985.7 315.0 L 987.2 312.9 L 988.7 310.9 L 990.3 308.8 L 991.8 306.7 L 993.3 304.6 L 994.8 302.5 L 996.3 300.4 L 997.7 298.3 L 999.2 296.2 L 1000.7 294.1 L 1002.1 292.0 L 1003.6 289.9 L 1005.0 287.8 L 1006.5 285.7 L 1007.9 283.5 L 1009.3 281.4 L 1010.7 279.3 L 1012.2 277.2 L 1013.6 275.1 L 1015.0 273.0 L 1016.3 270.8 L 1017.7 268.7 L 1019.1 266.6 L 1020.5 264.5 L 1021.8 262.3 L 1023.2 260.2 L 1024.5 258.1 L 1025.9 255.9 L 1027.2 253.8 L 1028.6 251.7 L 1029.9 249.5 L 1031.2 247.4 L 1032.5 245.2 L 1033.9 243.1 L 1035.2 240.9 L 1036.5 238.8 L 1037.8 236.6 L 1039.1 234.5 L 1040.4 232.3 L 1041.6 230.1 L 1042.9 228.0 L 1044.2 225.8 L 1045.5 223.6 L 1046.7 221.5 L 1048.0 219.3 L 1049.2 217.1 L 1050.5 214.9 L 1051.7 212.8 L 1053.0 210.6 L 1054.2 208.4 L 1055.4 206.2 L 1056.7 204.0 L 1057.9 201.8 L 1059.1 199.6 L 1060.3 197.4 L 1061.5 195.2 L 1062.7 193.0 L 1063.9 190.8 L 1065.1 188.6 L 1066.3 186.4 L 1067.5 184.2 L 1068.7 182.0 L 1069.9 179.7 L 1071.1 177.5 L 1072.2 175.3 L 1073.4 173.1 L 1074.6 170.8 L 1075.7 168.6 L 1076.9 166.4 L 1078.0 164.1 L 1079.2 161.9 L 1080.3 159.7 L 1081.5 157.4 L 1082.6 155.2 L 1083.8 152.9 L 1084.9 150.7 L 1086.0 148.4 L 1087.2 146.2 L 1088.3 143.9 L 1089.4 141.6 L 1090.5 139.4 L 1091.6 137.1 L 1092.7 134.8 L 1093.8 132.6 L 1095.0 130.3 L 1096.1 128.0 L 1097.2 125.7 L 1098.2 123.4 L 1099.3 121.1 L 1100.4 118.9 L 1101.5 116.6 L 1102.6 114.3 L 1103.7 112.0 L 1104.8 109.7 L 1105.8 107.4 L 1106.9 105.1 L 1108.0 102.8 L 1109.0 100.4" fill="none" stroke="#3b6db6" stroke-width="1.5" stroke-dasharray="10,8"/>
<text x="940.0" y="357.5" text-anchor="middle" font-size="13" font-family="Georgia" font-weight="bold" fill="#2f5ea8" stroke="white" stroke-opacity="0.96" stroke-width="5" paint-order="stroke fill" transform="rotate(-48.5,940.0,357.5)">1 MPa</text>
<path d="M 397.5 873.7 L 406.7 864.7 L 415.8 855.7 L 425.0 846.7 L 434.1 837.7 L 443.3 828.7 L 452.4 819.7 L 461.6 810.7 L 470.7 801.7 L 479.8 792.7 L 489.0 783.7 L 498.1 774.7 L 507.3 765.7 L 516.4 756.7 L 525.6 747.7 L 534.7 738.7 L 543.9 729.7 L 553.0 720.7 L 562.2 711.7 L 571.3 702.7 L 580.5 693.7 L 589.6 684.7 L 598.7 675.7 L 607.9 666.7 L 617.0 657.7 L 626.2 648.7 L 635.3 639.7 L 644.5 630.7 L 653.6 621.7 L 662.8 612.7 L 671.9 603.7 L 681.1 594.7 L 690.2 585.7 L 699.4 576.7 L 708.5 567.7 L 717.7 558.7 L 726.8 549.7 L 735.9 540.7 L 745.1 531.7 L 754.2 522.7 L 763.4 513.7 L 772.5 504.7 L 781.7 495.7 L 790.8 486.7 L 800.0 477.7 L 809.1 468.7 L 818.3 459.7 L 827.4 450.7 L 836.6 441.7 L 845.7 432.7 L 854.9 423.7 L 854.9 423.7 L 854.9 423.7 L 854.9 423.6 L 855.0 423.5 L 855.2 423.3 L 855.6 423.0 L 858.5 420.1 L 861.3 417.3 L 864.0 414.6 L 866.5 412.0 L 869.0 409.5 L 871.5 406.9 L 873.9 404.5 L 876.2 402.0 L 878.5 399.6 L 880.7 397.2 L 882.9 394.9 L 885.1 392.6 L 887.2 390.3 L 889.3 388.0 L 891.4 385.7 L 893.4 383.4 L 895.4 381.2 L 897.4 379.0 L 899.3 376.8 L 901.3 374.6 L 903.2 372.4 L 905.0 370.3 L 906.9 368.1 L 908.7 366.0 L 910.5 363.8 L 912.3 361.7 L 914.1 359.6 L 915.8 357.5 L 917.6 355.3 L 919.3 353.2 L 921.0 351.1 L 922.7 349.1 L 924.4 347.0 L 926.1 344.9 L 927.7 342.8 L 929.3 340.7 L 931.0 338.7 L 932.6 336.6 L 934.2 334.5 L 935.8 332.5 L 937.3 330.4 L 938.9 328.3 L 940.5 326.3 L 942.0 324.2 L 943.5 322.2 L 945.1 320.1 L 946.6 318.1 L 948.1 316.0 L 949.6 314.0 L 951.1 311.9 L 952.5 309.9 L 954.0 307.9 L 955.5 305.8 L 956.9 303.8 L 958.3 301.7 L 959.8 299.7 L 961.2 297.6 L 962.6 295.6 L 964.0 293.5 L 965.4 291.5 L 966.8 289.4 L 968.2 287.4 L 969.6 285.4 L 971.0 283.3 L 972.3 281.3 L 973.7 279.2 L 975.1 277.2 L 976.4 275.1 L 977.8 273.1 L 979.1 271.0 L 980.4 269.0 L 981.7 266.9 L 983.1 264.9 L 984.4 262.8 L 985.7 260.7 L 987.0 258.7 L 988.3 256.6 L 989.5 254.6 L 990.8 252.5 L 992.1 250.4 L 993.4 248.4 L 994.6 246.3 L 995.9 244.2 L 997.2 242.2 L 998.4 240.1 L 999.7 238.0 L 1000.9 236.0 L 1002.1 233.9 L 1003.4 231.8 L 1004.6 229.7 L 1005.8 227.7 L 1007.0 225.6 L 1008.2 223.5 L 1009.4 221.4 L 1010.6 219.3 L 1011.8 217.2 L 1013.0 215.1 L 1014.2 213.1 L 1015.4 211.0 L 1016.6 208.9 L 1017.8 206.8 L 1018.9 204.7 L 1020.1 202.6 L 1021.3 200.5 L 1022.4 198.4 L 1023.6 196.3 L 1024.7 194.2 L 1025.9 192.0 L 1027.0 189.9 L 1028.2 187.8 L 1029.3 185.7 L 1030.4 183.6 L 1031.6 181.5 L 1032.7 179.3 L 1033.8 177.2 L 1034.9 175.1 L 1036.1 173.0 L 1037.2 170.8 L 1038.3 168.7 L 1039.4 166.6 L 1040.5 164.4 L 1041.6 162.3 L 1042.7 160.1 L 1043.8 158.0 L 1044.8 155.9 L 1045.9 153.7 L 1047.0 151.6 L 1048.1 149.4 L 1049.2 147.3 L 1050.2 145.1 L 1051.3 142.9 L 1052.4 140.8 L 1053.4 138.6 L 1054.5 136.5 L 1055.5 134.3 L 1056.6 132.1 L 1057.6 130.0 L 1058.7 127.8 L 1059.7 125.6 L 1060.8 123.4 L 1061.8 121.2 L 1062.9 119.1 L 1063.9 116.9 L 1064.9 114.7 L 1065.9 112.5 L 1067.0 110.3 L 1068.0 108.1 L 1069.0 105.9 L 1070.0 103.7 L 1071.0 101.5" fill="none" stroke="#3b6db6" stroke-width="1.5" stroke-dasharray="10,8"/>
<text x="924.4" y="357.0" text-anchor="middle" font-size="13" font-family="Georgia" font-weight="bold" fill="#2f5ea8" stroke="white" stroke-opacity="0.96" stroke-width="5" paint-order="stroke fill" transform="rotate(-51.3,924.4,357.0)">2 MPa</text>
<path d="M 453.2 815.1 L 460.4 807.3 L 467.5 799.5 L 474.7 791.7 L 481.9 783.9 L 489.1 776.1 L 496.2 768.3 L 503.4 760.5 L 510.6 752.7 L 517.8 744.8 L 524.9 737.0 L 532.1 729.2 L 539.3 721.4 L 546.5 713.6 L 553.6 705.8 L 560.8 698.0 L 568.0 690.2 L 575.2 682.4 L 582.3 674.6 L 589.5 666.8 L 596.7 659.0 L 603.9 651.1 L 611.0 643.3 L 618.2 635.5 L 625.4 627.7 L 632.5 619.9 L 639.7 612.1 L 646.9 604.3 L 654.1 596.5 L 661.2 588.7 L 668.4 580.9 L 675.6 573.1 L 682.8 565.3 L 689.9 557.4 L 697.1 549.6 L 704.3 541.8 L 711.5 534.0 L 718.6 526.2 L 725.8 518.4 L 733.0 510.6 L 740.2 502.8 L 747.3 495.0 L 754.5 487.2 L 761.7 479.4 L 768.9 471.6 L 776.0 463.7 L 783.2 455.9 L 790.4 448.1 L 797.6 440.3 L 804.7 432.5 L 811.9 424.7 L 811.9 424.7 L 812.0 424.7 L 812.0 424.6 L 812.2 424.4 L 812.4 424.2 L 812.9 423.7 L 816.2 420.1 L 819.3 416.6 L 822.2 413.4 L 825.1 410.2 L 827.8 407.1 L 830.4 404.2 L 833.0 401.3 L 835.4 398.4 L 837.8 395.7 L 840.2 393.0 L 842.5 390.3 L 844.7 387.7 L 846.9 385.1 L 849.0 382.6 L 851.1 380.1 L 853.1 377.6 L 855.2 375.2 L 857.1 372.8 L 859.1 370.4 L 861.0 368.1 L 862.9 365.7 L 864.7 363.4 L 866.5 361.1 L 868.3 358.9 L 870.1 356.6 L 871.9 354.4 L 873.6 352.2 L 875.3 350.0 L 877.0 347.8 L 878.6 345.6 L 880.3 343.5 L 881.9 341.3 L 883.5 339.2 L 885.1 337.0 L 886.7 334.9 L 888.3 332.8 L 889.8 330.7 L 891.4 328.6 L 892.9 326.5 L 894.4 324.5 L 895.9 322.4 L 897.4 320.3 L 898.8 318.3 L 900.3 316.2 L 901.8 314.2 L 903.2 312.1 L 904.6 310.1 L 906.0 308.1 L 907.4 306.0 L 908.8 304.0 L 910.2 302.0 L 911.6 300.0 L 913.0 298.0 L 914.3 296.0 L 915.7 294.0 L 917.0 292.0 L 918.4 290.0 L 919.7 288.0 L 921.0 286.0 L 922.3 284.0 L 923.6 282.0 L 924.9 280.0 L 926.2 278.0 L 927.5 276.0 L 928.8 274.0 L 930.0 272.1 L 931.3 270.1 L 932.5 268.1 L 933.8 266.1 L 935.0 264.1 L 936.3 262.2 L 937.5 260.2 L 938.7 258.2 L 939.9 256.2 L 941.1 254.3 L 942.3 252.3 L 943.5 250.3 L 944.7 248.4 L 945.9 246.4 L 947.1 244.4 L 948.3 242.4 L 949.5 240.5 L 950.6 238.5 L 951.8 236.5 L 953.0 234.6 L 954.1 232.6 L 955.3 230.6 L 956.4 228.6 L 957.5 226.7 L 958.7 224.7 L 959.8 222.7 L 960.9 220.8 L 962.1 218.8 L 963.2 216.8 L 964.3 214.8 L 965.4 212.9 L 966.5 210.9 L 967.6 208.9 L 968.7 206.9 L 969.8 205.0 L 970.9 203.0 L 972.0 201.0 L 973.0 199.0 L 974.1 197.0 L 975.2 195.1 L 976.3 193.1 L 977.3 191.1 L 978.4 189.1 L 979.5 187.1 L 980.5 185.1 L 981.6 183.2 L 982.6 181.2 L 983.6 179.2 L 984.7 177.2 L 985.7 175.2 L 986.8 173.2 L 987.8 171.2 L 988.8 169.2 L 989.8 167.2 L 990.9 165.2 L 991.9 163.2 L 992.9 161.3 L 993.9 159.3 L 994.9 157.3 L 995.9 155.3 L 996.9 153.3 L 997.9 151.2 L 998.9 149.2 L 999.9 147.2 L 1000.9 145.2 L 1001.9 143.2 L 1002.9 141.2 L 1003.9 139.2 L 1004.8 137.2 L 1005.8 135.2 L 1006.8 133.2 L 1007.8 131.1 L 1008.7 129.1 L 1009.7 127.1 L 1010.7 125.1 L 1011.6 123.1 L 1012.6 121.0 L 1013.5 119.0 L 1014.5 117.0 L 1015.4 115.0 L 1016.4 112.9 L 1017.3 110.9 L 1018.3 108.9 L 1019.2 106.8 L 1020.1 104.8" fill="none" stroke="#3b6db6" stroke-width="1.5" stroke-dasharray="10,8"/>
<text x="894.4" y="310.5" text-anchor="middle" font-size="13" font-family="Georgia" font-weight="bold" fill="#2f5ea8" stroke="white" stroke-opacity="0.96" stroke-width="5" paint-order="stroke fill" transform="rotate(-54.1,894.4,310.5)">5 MPa</text>
<path d="M 504.8 754.8 L 510.1 748.5 L 515.4 742.2 L 520.7 736.0 L 526.0 729.7 L 531.3 723.4 L 536.6 717.1 L 541.9 710.9 L 547.2 704.6 L 552.5 698.3 L 557.8 692.1 L 563.1 685.8 L 568.4 679.5 L 573.7 673.2 L 579.0 667.0 L 584.3 660.7 L 589.6 654.4 L 594.9 648.1 L 600.2 641.9 L 605.5 635.6 L 610.8 629.3 L 616.1 623.0 L 621.4 616.8 L 626.7 610.5 L 632.0 604.2 L 637.4 597.9 L 642.7 591.7 L 648.0 585.4 L 653.3 579.1 L 658.6 572.8 L 663.9 566.6 L 669.2 560.3 L 674.5 554.0 L 679.8 547.7 L 685.1 541.5 L 690.4 535.2 L 695.7 528.9 L 701.0 522.6 L 706.3 516.4 L 711.6 510.1 L 716.9 503.8 L 722.2 497.5 L 727.5 491.3 L 732.8 485.0 L 738.1 478.7 L 743.4 472.4 L 748.7 466.2 L 754.0 459.9 L 759.3 453.6 L 764.6 447.4 L 769.9 441.1 L 769.9 441.1 L 769.9 441.0 L 770.0 440.9 L 770.2 440.7 L 770.6 440.2 L 771.3 439.4 L 775.6 434.3 L 779.6 429.5 L 783.3 425.1 L 786.7 420.9 L 790.0 416.9 L 793.1 413.1 L 796.1 409.4 L 799.0 405.9 L 801.7 402.5 L 804.4 399.2 L 806.9 396.0 L 809.4 392.8 L 811.8 389.8 L 814.1 386.8 L 816.4 383.9 L 818.6 381.1 L 820.8 378.3 L 822.9 375.5 L 824.9 372.8 L 827.0 370.2 L 828.9 367.6 L 830.9 365.0 L 832.8 362.5 L 834.6 360.0 L 836.5 357.5 L 838.3 355.1 L 840.0 352.6 L 841.8 350.3 L 843.5 347.9 L 845.2 345.6 L 846.9 343.2 L 848.5 340.9 L 850.2 338.7 L 851.8 336.4 L 853.3 334.2 L 854.9 332.0 L 856.5 329.7 L 858.0 327.6 L 859.5 325.4 L 861.0 323.2 L 862.5 321.1 L 863.9 318.9 L 865.4 316.8 L 866.8 314.7 L 868.3 312.6 L 869.7 310.5 L 871.1 308.4 L 872.4 306.3 L 873.8 304.3 L 875.2 302.2 L 876.5 300.1 L 877.9 298.1 L 879.2 296.1 L 880.5 294.0 L 881.8 292.0 L 883.1 290.0 L 884.4 288.0 L 885.7 286.0 L 887.0 284.0 L 888.2 282.0 L 889.5 280.0 L 890.7 278.0 L 892.0 276.1 L 893.2 274.1 L 894.4 272.1 L 895.6 270.2 L 896.8 268.2 L 898.0 266.2 L 899.2 264.3 L 900.4 262.3 L 901.6 260.4 L 902.8 258.4 L 903.9 256.5 L 905.1 254.6 L 906.2 252.6 L 907.4 250.7 L 908.5 248.8 L 909.7 246.9 L 910.8 244.9 L 911.9 243.0 L 913.0 241.1 L 914.1 239.2 L 915.3 237.3 L 916.4 235.3 L 917.5 233.4 L 918.5 231.5 L 919.6 229.6 L 920.7 227.7 L 921.8 225.8 L 922.9 223.9 L 923.9 222.0 L 925.0 220.1 L 926.1 218.2 L 927.1 216.3 L 928.2 214.4 L 929.2 212.5 L 930.2 210.6 L 931.3 208.7 L 932.3 206.8 L 933.3 204.9 L 934.4 203.0 L 935.4 201.1 L 936.4 199.2 L 937.4 197.3 L 938.4 195.4 L 939.4 193.6 L 940.4 191.7 L 941.4 189.8 L 942.4 187.9 L 943.4 186.0 L 944.4 184.1 L 945.4 182.2 L 946.4 180.3 L 947.3 178.4 L 948.3 176.6 L 949.3 174.7 L 950.2 172.8 L 951.2 170.9 L 952.2 169.0 L 953.1 167.1 L 954.1 165.2 L 955.0 163.3 L 956.0 161.4 L 956.9 159.6 L 957.9 157.7 L 958.8 155.8 L 959.7 153.9 L 960.7 152.0 L 961.6 150.1 L 962.5 148.2 L 963.5 146.3 L 964.4 144.4 L 965.3 142.5 L 966.2 140.7 L 967.1 138.8 L 968.0 136.9 L 968.9 135.0 L 969.9 133.1 L 970.8 131.2 L 971.7 129.3 L 972.6 127.4 L 973.4 125.5 L 974.3 123.6 L 975.2 121.7 L 976.1 119.8 L 977.0 117.9 L 977.9 116.0 L 978.8 114.1 L 979.6 112.2 L 980.5 110.3" fill="none" stroke="#3b6db6" stroke-width="1.5" stroke-dasharray="10,8"/>
<text x="872.4" y="316.3" text-anchor="middle" font-size="13" font-family="Georgia" font-weight="bold" fill="#2f5ea8" stroke="white" stroke-opacity="0.96" stroke-width="5" paint-order="stroke fill" transform="rotate(-56.3,872.4,316.3)">10 MPa</text>
<path d="M 581.8 655.0 L 584.0 652.2 L 586.1 649.4 L 588.3 646.6 L 590.4 643.8 L 592.6 641.1 L 594.7 638.3 L 596.9 635.5 L 599.0 632.7 L 601.1 629.9 L 603.3 627.2 L 605.4 624.4 L 607.6 621.6 L 609.7 618.8 L 611.9 616.0 L 614.0 613.2 L 616.2 610.5 L 618.3 607.7 L 620.5 604.9 L 622.6 602.1 L 624.8 599.3 L 626.9 596.5 L 629.1 593.8 L 631.2 591.0 L 633.4 588.2 L 635.5 585.4 L 637.7 582.6 L 639.8 579.9 L 642.0 577.1 L 644.1 574.3 L 646.3 571.5 L 648.4 568.7 L 650.6 565.9 L 652.7 563.2 L 654.9 560.4 L 657.0 557.6 L 659.2 554.8 L 661.3 552.0 L 663.5 549.2 L 665.6 546.5 L 667.8 543.7 L 669.9 540.9 L 672.1 538.1 L 674.2 535.3 L 676.4 532.6 L 678.5 529.8 L 680.7 527.0 L 682.8 524.2 L 685.0 521.4 L 687.1 518.6 L 689.3 515.9 L 689.3 515.8 L 689.7 515.3 L 690.1 514.8 L 691.2 513.3 L 693.0 511.0 L 696.2 506.9 L 709.1 490.1 L 718.0 478.5 L 725.1 469.1 L 731.2 461.1 L 736.6 454.0 L 741.4 447.6 L 745.9 441.7 L 750.0 436.2 L 753.8 431.0 L 757.4 426.2 L 760.7 421.6 L 764.0 417.2 L 767.0 413.0 L 769.9 409.0 L 772.7 405.1 L 775.4 401.4 L 778.0 397.8 L 780.6 394.2 L 783.0 390.8 L 785.4 387.5 L 787.7 384.2 L 789.9 381.1 L 792.1 378.0 L 794.2 374.9 L 796.2 372.0 L 798.3 369.0 L 800.2 366.2 L 802.2 363.3 L 804.1 360.6 L 805.9 357.9 L 807.7 355.2 L 809.5 352.5 L 811.3 349.9 L 813.0 347.3 L 814.7 344.8 L 816.4 342.3 L 818.0 339.8 L 819.6 337.4 L 821.2 334.9 L 822.8 332.5 L 824.3 330.1 L 825.9 327.8 L 827.4 325.5 L 828.9 323.2 L 830.3 320.9 L 831.8 318.6 L 833.2 316.3 L 834.6 314.1 L 836.0 311.9 L 837.4 309.7 L 838.8 307.5 L 840.2 305.3 L 841.5 303.2 L 842.8 301.0 L 844.2 298.9 L 845.5 296.8 L 846.8 294.7 L 848.0 292.6 L 849.3 290.5 L 850.6 288.4 L 851.8 286.4 L 853.1 284.3 L 854.3 282.3 L 855.5 280.2 L 856.7 278.2 L 857.9 276.2 L 859.1 274.2 L 860.3 272.2 L 861.5 270.2 L 862.6 268.2 L 863.8 266.3 L 864.9 264.3 L 866.1 262.3 L 867.2 260.4 L 868.3 258.4 L 869.4 256.5 L 870.5 254.5 L 871.6 252.6 L 872.7 250.7 L 873.8 248.8 L 874.9 246.9 L 876.0 245.0 L 877.1 243.0 L 878.1 241.1 L 879.2 239.3 L 880.2 237.4 L 881.3 235.5 L 882.3 233.6 L 883.4 231.7 L 884.4 229.8 L 885.4 228.0 L 886.4 226.1 L 887.4 224.2 L 888.4 222.4 L 889.5 220.5 L 890.5 218.7 L 891.4 216.8 L 892.4 215.0 L 893.4 213.1 L 894.4 211.3 L 895.4 209.5 L 896.3 207.6 L 897.3 205.8 L 898.3 204.0 L 899.2 202.1 L 900.2 200.3 L 901.1 198.5 L 902.1 196.7 L 903.0 194.8 L 904.0 193.0 L 904.9 191.2 L 905.8 189.4 L 906.7 187.6 L 907.7 185.8 L 908.6 184.0 L 909.5 182.2 L 910.4 180.4 L 911.3 178.6 L 912.2 176.8 L 913.1 175.0 L 914.0 173.2 L 914.9 171.4 L 915.8 169.6 L 916.7 167.8 L 917.6 166.0 L 918.5 164.2 L 919.3 162.4 L 920.2 160.6 L 921.1 158.8 L 922.0 157.1 L 922.8 155.3 L 923.7 153.5 L 924.5 151.7 L 925.4 149.9 L 926.3 148.1 L 927.1 146.4 L 928.0 144.6 L 928.8 142.8 L 929.7 141.0 L 930.5 139.2 L 931.3 137.5 L 932.2 135.7 L 933.0 133.9 L 933.8 132.1 L 934.7 130.4 L 935.5 128.6 L 936.3 126.8 L 937.1 125.0 L 938.0 123.3 L 938.8 121.5" fill="none" stroke="#3b6db6" stroke-width="1.5" stroke-dasharray="10,8"/>
<text x="845.5" y="282.8" text-anchor="middle" font-size="13" font-family="Georgia" font-weight="bold" fill="#2f5ea8" stroke="white" stroke-opacity="0.96" stroke-width="5" paint-order="stroke fill" transform="rotate(-58.4,845.5,282.8)">20 MPa</text>
<path d="M 109.9 1078.3 L 119.0 1073.2 L 128.1 1068.0 L 136.9 1062.9 L 145.6 1057.8 L 154.2 1052.6 L 162.6 1047.4 L 170.9 1042.3 L 179.0 1037.1 L 187.1 1031.9 L 195.0 1026.7 L 202.7 1021.6 L 210.4 1016.4 L 217.9 1011.2 L 225.4 1006.0 L 232.7 1000.8 L 239.9 995.6 L 247.0 990.4 L 254.1 985.1 L 261.0 979.9 L 267.8 974.7 L 274.6 969.4 L 281.3 964.2 L 287.9 958.9 L 294.4 953.7 L 300.8 948.4 L 307.2 943.1 L 313.5 937.8 L 319.7 932.5 L 325.9 927.2 L 332.0 921.9 L 338.0 916.6 L 344.0 911.2 L 349.9 905.9 L 355.8 900.5 L 361.6 895.1 L 367.4 889.7 L 373.1 884.3 L 378.7 878.9 L 384.4 873.4 L 390.0 867.9 L 395.5 862.4 L 401.0 856.9 L 406.5 851.4 L 411.9 845.8 L 417.3 840.2 L 422.7 834.6 L 428.1 828.9 L 433.4 823.3 L 438.7 817.5 L 444.0 811.8 L 449.3 806.0 L 454.5 800.1 L 459.8 794.3 L 465.0 788.3 L 470.2 782.4 L 475.5 776.3 L 480.7 770.2 L 485.9 764.1 L 491.2 757.9 L 496.4 751.6 L 501.7 745.3 L 507.0 738.8 L 512.3 732.3 L 517.6 725.7 L 522.9 719.0 L 528.3 712.2 L 533.8 705.3 L 539.3 698.2 L 544.9 691.0 L 550.5 683.6 L 556.2 676.1 L 562.1 668.3 L 568.0 660.4 L 574.1 652.2 L 580.3 643.7 L 586.7 635.0 L 593.3 625.9 L 600.1 616.4 L 607.2 606.5 L 614.5 596.2 L 622.1 585.4 L 629.9 574.2 L 637.9 562.6 L 646.1 550.6 L 654.4 538.5 L 662.7 526.2 L 670.8 514.1 L 678.8 502.2 L 686.4 490.7 L 693.7 479.5 L 700.7 468.8 L 707.4 458.6 L 713.7 448.8 L 719.6 439.5 L 725.4 430.5 L 730.8 421.9 L 735.9 413.7 L 740.8 405.8 L 745.5 398.2 L 750.0 390.9 L 754.3 383.8 L 758.4 377.0 L 762.4 370.4 L 766.3 364.0 L 770.0 357.8 L 773.5 351.7 L 777.0 345.8 L 780.4 340.0 L 783.6 334.4 L 786.8 328.9 L 789.9 323.5 L 792.9 318.2 L 795.8 313.0 L 798.7 307.9 L 801.5 302.8 L 804.3 297.9 L 807.0 293.0 L 809.6 288.2 L 812.2 283.4 L 814.7 278.8 L 817.2 274.1 L 819.7 269.6 L 822.1 265.0 L 824.5 260.6 L 826.8 256.1 L 829.1 251.7 L 831.4 247.4 L 833.6 243.1 L 835.8 238.8 L 837.9 234.6 L 840.1 230.4 L 842.2 226.2 L 844.3 222.1 L 846.3 218.0 L 848.4 213.9 L 850.4 209.8 L 852.4 205.8 L 854.3 201.8 L 856.3 197.8 L 858.2 193.9 L 860.1 189.9 L 862.0 186.0 L 863.8 182.1 L 865.7 178.2 L 867.5 174.4 L 869.3 170.5 L 871.1 166.7 L 872.9 162.8 L 874.7 159.0 L 876.4 155.2" fill="none" stroke="#3b6db6" stroke-width="1.5" stroke-dasharray="10,8"/>
<text x="670.8" y="524.1" text-anchor="middle" font-size="13" font-family="Georgia" font-weight="bold" fill="#2f5ea8" stroke="white" stroke-opacity="0.96" stroke-width="5" paint-order="stroke fill" transform="rotate(-56.2,670.8,524.1)">50 MPa</text>
<path d="M 109.0 1067.3 L 117.9 1062.3 L 126.7 1057.3 L 135.3 1052.3 L 143.9 1047.2 L 152.2 1042.2 L 160.5 1037.1 L 168.6 1032.1 L 176.6 1027.0 L 184.5 1021.9 L 192.2 1016.8 L 199.9 1011.7 L 207.4 1006.6 L 214.8 1001.5 L 222.1 996.4 L 229.3 991.3 L 236.4 986.2 L 243.4 981.1 L 250.3 976.0 L 257.1 970.8 L 263.8 965.7 L 270.4 960.6 L 277.0 955.4 L 283.4 950.3 L 289.8 945.1 L 296.1 940.0 L 302.4 934.8 L 308.5 929.6 L 314.6 924.4 L 320.6 919.3 L 326.6 914.1 L 332.5 908.9 L 338.3 903.7 L 344.1 898.4 L 349.8 893.2 L 355.4 888.0 L 361.0 882.8 L 366.5 877.5 L 372.0 872.2 L 377.5 867.0 L 382.9 861.7 L 388.2 856.4 L 393.5 851.1 L 398.8 845.8 L 404.0 840.4 L 409.1 835.1 L 414.3 829.7 L 419.4 824.3 L 424.4 818.9 L 429.5 813.5 L 434.5 808.1 L 439.4 802.6 L 444.4 797.1 L 449.3 791.6 L 454.1 786.1 L 459.0 780.5 L 463.8 775.0 L 468.6 769.4 L 473.4 763.8 L 478.2 758.1 L 482.9 752.4 L 487.6 746.7 L 492.3 741.0 L 497.0 735.3 L 501.7 729.5 L 506.3 723.7 L 511.0 717.8 L 515.6 711.9 L 520.2 706.0 L 524.8 700.1 L 529.4 694.1 L 534.0 688.1 L 538.6 682.0 L 543.1 675.9 L 547.7 669.7 L 552.3 663.5 L 556.8 657.3 L 561.3 651.0 L 565.9 644.7 L 570.4 638.3 L 575.0 631.9 L 579.5 625.4 L 584.1 618.9 L 588.6 612.3 L 593.2 605.7 L 597.7 599.0 L 602.3 592.3 L 606.9 585.5 L 611.4 578.7 L 616.0 571.8 L 620.5 564.8 L 625.1 557.9 L 629.6 550.9 L 634.2 543.8 L 638.7 536.7 L 643.2 529.6 L 647.7 522.5 L 652.2 515.4 L 656.6 508.3 L 661.0 501.1 L 665.4 494.0 L 669.7 486.9 L 674.0 479.8 L 678.3 472.8 L 682.5 465.7 L 686.6 458.7 L 690.7 451.8 L 694.8 444.9 L 698.8 438.0 L 702.7 431.2 L 706.6 424.4 L 710.4 417.7 L 714.2 411.1 L 717.9 404.6 L 721.6 398.0 L 725.2 391.6 L 728.7 385.2 L 732.2 378.9 L 735.6 372.7 L 738.9 366.6 L 742.2 360.5 L 745.4 354.5 L 748.6 348.6 L 751.7 342.8 L 754.8 337.0 L 757.8 331.3 L 760.7 325.7 L 763.6 320.1 L 766.5 314.6 L 769.3 309.1 L 772.1 303.7 L 774.8 298.3 L 777.5 293.0 L 780.2 287.7 L 782.8 282.5 L 785.3 277.4 L 787.9 272.3 L 790.4 267.3 L 792.8 262.3 L 795.2 257.3 L 797.6 252.4 L 799.9 247.5 L 802.3 242.7 L 804.5 237.9 L 806.8 233.2 L 809.0 228.5 L 811.2 223.8 L 813.4 219.2 L 815.5 214.6 L 817.7 210.0 L 819.8 205.4" fill="none" stroke="#3b6db6" stroke-width="1.5" stroke-dasharray="10,8"/>
<text x="634.2" y="529.8" text-anchor="middle" font-size="13" font-family="Georgia" font-weight="bold" fill="#2f5ea8" stroke="white" stroke-opacity="0.96" stroke-width="5" paint-order="stroke fill" transform="rotate(-57.3,634.2,529.8)">100 MPa</text>
<path d="M 110.0 1090.0 L 113.4 1088.1 L 116.7 1086.2 L 120.1 1084.4 L 123.4 1082.5 L 126.6 1080.6 L 129.9 1078.8 L 133.1 1076.9 L 136.3 1075.0 L 139.5 1073.2 L 142.7 1071.3 L 145.8 1069.5 L 148.9 1067.6 L 152.0 1065.7 L 155.1 1063.9 L 158.1 1062.0 L 161.2 1060.1 L 164.2 1058.3 L 167.2 1056.4 L 170.2 1054.6 L 173.2 1052.7 L 176.1 1050.8 L 179.0 1049.0 L 181.9 1047.1 L 184.8 1045.3 L 187.7 1043.4 L 190.6 1041.5 L 193.4 1039.7 L 196.3 1037.8 L 199.1 1036.0 L 201.9 1034.1 L 204.6 1032.2 L 207.4 1030.4 L 210.2 1028.5 L 212.9 1026.7 L 215.6 1024.8 L 218.3 1022.9 L 221.0 1021.1 L 223.7 1019.2 L 226.4 1017.3 L 229.0 1015.5 L 231.7 1013.6 L 234.3 1011.7 L 236.9 1009.9 L 239.5 1008.0 L 242.1 1006.1 L 244.7 1004.3 L 247.2 1002.4 L 249.8 1000.5 L 252.3 998.6 L 254.8 996.8 L 257.4 994.9 L 259.9 993.0 L 262.3 991.1 L 264.8 989.3 L 267.3 987.4 L 269.8 985.5 L 272.2 983.6 L 274.6 981.7 L 277.1 979.9 L 279.5 978.0 L 281.9 976.1 L 284.3 974.2 L 286.7 972.3 L 289.1 970.4 L 291.4 968.5 L 293.8 966.6 L 296.1 964.7 L 298.5 962.8 L 300.8 960.9 L 303.1 959.0 L 305.4 957.1 L 307.7 955.2 L 310.0 953.3 L 312.3 951.4 L 314.6 949.5 L 316.9 947.6 L 319.1 945.7 L 321.4 943.8 L 323.6 941.9 L 325.9 939.9 L 328.1 938.0 L 330.3 936.1 L 332.6 934.2 L 334.8 932.2 L 337.0 930.3 L 339.2 928.4 L 341.4 926.4 L 343.5 924.5 L 345.7 922.5 L 347.9 920.6 L 350.0 918.7 L 352.2 916.7 L 354.4 914.7 L 356.5 912.8 L 358.6 910.8 L 360.8 908.9 L 362.9 906.9 L 365.0 904.9 L 367.1 903.0 L 369.2 901.0 L 371.4 899.0 L 373.5 897.0 L 375.5 895.0 L 377.6 893.0 L 379.7 891.0 L 381.8 889.0 L 383.9 887.0 L 386.0 885.0 L 388.0 883.0 L 390.1 881.0 L 392.1 879.0 L 394.2 877.0 L 396.3 874.9 L 398.3 872.9 L 400.4 870.8 L 402.4 868.8 L 404.4 866.7 L 406.5 864.7 L 408.5 862.6 L 410.5 860.6 L 412.6 858.5 L 414.6 856.4 L 416.6 854.3 L 418.6 852.2 L 420.6 850.1 L 422.7 848.0 L 424.7 845.9 L 426.7 843.8 L 428.7 841.7 L 430.7 839.5 L 432.7 837.4 L 434.7 835.3 L 436.7 833.1 L 438.7 830.9 L 440.7 828.8 L 442.7 826.6 L 444.8 824.4 L 446.8 822.2 L 448.8 820.0 L 450.8 817.8 L 452.8 815.6 L 454.8 813.3 L 456.8 811.1 L 458.8 808.8 L 460.8 806.6 L 462.8 804.3 L 464.9 802.0 L 466.9 799.7 L 468.9 797.4 L 470.9 795.1 L 472.9 792.7 L 475.0 790.4 L 477.0 788.0 L 479.1 785.6 L 481.1 783.2 L 483.1 780.8 L 485.2 778.4 L 487.3 776.0 L 489.3 773.5 L 491.4 771.0 L 493.5 768.5 L 495.6 766.0 L 497.7 763.5 L 499.8 761.0 L 501.9 758.4 L 504.0 755.8 L 506.2 753.2 L 508.3 750.5 L 510.5 747.8 L 512.7 745.1 L 514.8 742.4 L 517.1 739.7 L 519.3 736.9 L 521.5 734.1 L 523.8 731.2 L 526.1 728.3 L 528.4 725.4 L 530.7 722.4 L 533.1 719.4 L 535.4 716.3 L 537.9 713.2 L 540.3 710.0 L 542.8 706.8 L 545.3 703.5 L 547.9 700.1 L 550.6 696.6 L 553.3 693.1 L 556.1 689.4 L 558.9 685.6 L 561.9 681.6 L 565.0 677.5 L 568.2 673.2 L 571.6 668.7 L 575.2 663.9 L 579.0 658.7 L 583.3 653.0 L 588.1 646.6 L 593.8 638.9 L 601.5 628.6 L 620.2 603.7 L 625.6 596.6 L 627.5 594.2 L 628.1 593.4 L 628.3 593.1" fill="none" stroke="#2f5ea8" stroke-width="3"/>
<path d="M 1185.8 494.5 L 1179.9 493.7 L 1174.2 492.9 L 1168.6 492.1 L 1163.0 491.3 L 1157.6 490.5 L 1152.2 489.6 L 1147.0 488.8 L 1141.8 488.0 L 1136.7 487.2 L 1131.7 486.4 L 1126.8 485.6 L 1121.9 484.8 L 1117.2 484.0 L 1112.5 483.2 L 1107.9 482.4 L 1103.3 481.6 L 1098.9 480.8 L 1094.5 480.0 L 1090.1 479.2 L 1085.9 478.4 L 1081.7 477.6 L 1077.5 476.8 L 1073.5 476.0 L 1069.5 475.2 L 1065.5 474.4 L 1061.7 473.6 L 1057.8 472.8 L 1054.1 472.0 L 1050.4 471.3 L 1046.7 470.5 L 1043.1 469.7 L 1039.5 468.9 L 1036.0 468.1 L 1032.6 467.4 L 1029.2 466.6 L 1025.8 465.8 L 1022.5 465.1 L 1019.3 464.3 L 1016.1 463.6 L 1012.9 462.8 L 1009.8 462.1 L 1006.7 461.3 L 1003.7 460.6 L 1000.7 459.8 L 997.7 459.1 L 994.8 458.3 L 991.9 457.6 L 989.1 456.9 L 986.3 456.2 L 983.5 455.4 L 980.8 454.7 L 978.1 454.0 L 975.4 453.3 L 972.8 452.6 L 970.2 451.9 L 967.6 451.2 L 965.1 450.5 L 962.6 449.8 L 960.1 449.2 L 957.6 448.5 L 955.2 447.8 L 952.8 447.2 L 950.5 446.5 L 948.1 445.9 L 945.8 445.2 L 943.5 444.6 L 941.3 443.9 L 939.0 443.3 L 936.8 442.7 L 934.6 442.1 L 932.4 441.5 L 930.3 440.9 L 928.2 440.3 L 926.1 439.7 L 924.0 439.1 L 921.9 438.5 L 919.9 438.0 L 917.8 437.4 L 915.8 436.9 L 913.8 436.3 L 911.9 435.8 L 909.9 435.3 L 908.0 434.8 L 906.0 434.3 L 904.1 433.8 L 902.3 433.3 L 900.4 432.8 L 898.5 432.3 L 896.7 431.9 L 894.8 431.4 L 893.0 431.0 L 891.2 430.5 L 889.4 430.1 L 887.7 429.7 L 885.9 429.3 L 884.1 428.9 L 882.4 428.5 L 880.7 428.1 L 878.9 427.7 L 877.2 427.4 L 875.5 427.0 L 873.9 426.7 L 872.2 426.4 L 870.5 426.1 L 868.8 425.8 L 867.2 425.5 L 865.5 425.2 L 863.9 425.0 L 862.3 424.7 L 860.7 424.5 L 859.0 424.2 L 857.4 424.0 L 855.8 423.8 L 854.2 423.6 L 852.7 423.5 L 851.1 423.3 L 849.5 423.2 L 847.9 423.0 L 846.3 422.9 L 844.8 422.8 L 843.2 422.7 L 841.7 422.7 L 840.1 422.6 L 838.5 422.6 L 837.0 422.6 L 835.4 422.6 L 833.9 422.6 L 832.4 422.6 L 830.8 422.6 L 829.3 422.7 L 827.7 422.8 L 826.2 422.9 L 824.6 423.0 L 823.1 423.1 L 821.5 423.3 L 820.0 423.5 L 818.4 423.7 L 816.9 423.9 L 815.3 424.1 L 813.8 424.4 L 812.2 424.6 L 810.7 425.0 L 809.1 425.3 L 807.5 425.6 L 805.9 426.0 L 804.4 426.4 L 802.8 426.8 L 801.2 427.3 L 799.6 427.7 L 798.0 428.2 L 796.3 428.8 L 794.7 429.3 L 793.1 429.9 L 791.4 430.5 L 789.8 431.2 L 788.1 431.9 L 786.4 432.6 L 784.7 433.3 L 783.0 434.1 L 781.3 434.9 L 779.5 435.8 L 777.8 436.7 L 776.0 437.6 L 774.2 438.6 L 772.4 439.6 L 770.6 440.7 L 768.7 441.8 L 766.8 442.9 L 764.9 444.1 L 763.0 445.4 L 761.0 446.7 L 759.0 448.1 L 757.0 449.5 L 754.9 451.0 L 752.8 452.6 L 750.7 454.3 L 748.5 456.0 L 746.2 457.8 L 743.9 459.7 L 741.6 461.7 L 739.2 463.7 L 736.7 465.9 L 734.1 468.3 L 731.5 470.7 L 728.8 473.3 L 725.9 476.0 L 723.0 478.9 L 720.0 482.0 L 716.8 485.2 L 713.4 488.8 L 709.8 492.6 L 706.1 496.7 L 702.0 501.2 L 697.6 506.1 L 692.8 511.7 L 687.4 518.1 L 681.1 525.6 L 673.5 535.0 L 663.0 548.2 L 637.6 581.0 L 631.3 589.2 L 629.3 591.8 L 628.7 592.6 L 628.3 593.1" fill="none" stroke="#2f5ea8" stroke-width="3"/>
<text x="341.5" y="885.0" text-anchor="middle" font-size="13" font-family="Georgia" font-weight="bold" fill="#1f2937" stroke="white" stroke-opacity="0.96" stroke-width="5" paint-order="stroke fill" transform="rotate(-43.4,341.5,885.0)">Saturated Liquid</text>
<text x="861.4" y="410.6" text-anchor="middle" font-size="13" font-family="Georgia" font-weight="bold" fill="#1f2937" stroke="white" stroke-opacity="0.96" stroke-width="5" paint-order="stroke fill" transform="rotate(-0.1,861.4,410.6)">Saturated Vapor</text>
<circle cx="628.3" cy="593.1" r="5" fill="#1f2937"/>
<text x="590.3" y="567.1" text-anchor="end" font-size="13" font-family="Georgia" font-weight="bold" fill="#1f2937" stroke="white" stroke-opacity="0.96" stroke-width="5" paint-order="stroke fill">Critical Point</text>
</svg>